<svg xmlns="http://www.w3.org/2000/svg" width="1024" height="1024"><path fill="#FEFEFE" d="M0 0h1024v1024H0V0Z"/><path fill="#242323" d="M513.754 51.742a460.327 460.327 0 0 1 324.431 130.291 464.118 464.118 0 0 1 142.149 331.515 450.65 450.65 0 0 1-128.206 320.765C761.11 927.221 644.954 973.696 515.45 974.954a471.01 471.01 0 0 1-329.658-131.932A449.496 449.496 0 0 1 47.951 523.075a461.535 461.535 0 0 1 133.256-332.777A460.568 460.568 0 0 1 443.979 56.659c25.004-3.65 44.803-4.557 69.775-4.917Z"/><path fill="#FEFEFE" d="M500.532 62.716A453.048 453.048 0 0 1 821.658 181.19a455.29 455.29 0 0 1 147.52 318.006 442.14 442.14 0 0 1-115.009 316.99 454.022 454.022 0 0 1-274.647 143.561 542.896 542.896 0 0 1-50.998 4.168c-20.602.32-39.485.065-59.983-1.944a460.515 460.515 0 0 1-267.728-120.028 439.266 439.266 0 0 1-141.861-309.87 451.669 451.669 0 0 1 122.09-325.747 457.402 457.402 0 0 1 64.58-57.14c76.636-55.96 160.561-82.779 254.91-86.471Z"/><path fill="#242323" d="m494.928 78.221.459-.032a439.271 439.271 0 0 1 317.689 114.284A438.376 438.376 0 0 1 955.93 500.951a426.605 426.605 0 0 1-114.425 309.765c-79.133 85.807-189.15 132.662-305.129 137.442-.554.043-1.107.08-1.661.111a449.966 449.966 0 0 1-323.197-117.737A424.406 424.406 0 0 1 74.459 539.174a436.767 436.767 0 0 1 115.287-319.87A438.233 438.233 0 0 1 494.928 78.221Z"/><path fill="#FEFEFE" d="M495.305 85.714c10.843-.984 33.649-.343 44.535.306a429.62 429.62 0 0 1 176.367 47.915 436.252 436.252 0 0 1 213.181 254.938 429.516 429.516 0 0 1-28.911 325.799 423.454 423.454 0 0 1-193.932 184.967c-23.289 10.922-43.689 17.853-67.989 25.43 2.898-10.775-1.929-17.808-5.793-27.688a155.873 155.873 0 0 1-4.977-14.791 86.176 86.176 0 0 1-3.248-24.79c.27-17.217 5.142-36.018 6.461-53.41.997-10.434.355-20.929.422-31.391.051-7.801-.88-17.675 3.339-24.562 9.399-15.347 30.104-15.635 45.986-17.494 6.687-.783 13.24-1.654 19.738-3.542 12.616-3.537 25.693-10.313 32.293-22.233 7.054-12.741 7.571-29.331-1.1-41.539-2.986-4.262-7.962-10.332-9.339-15.231-2.359-8.388 10.839-9.547 14.598-17.891 3.386-7.515 2.183-12.418.064-19.905 19.238-14.889 1.004-26.146 7.193-43.788 2.404-6.856 16.033-3.267 22.954-3.293 4.528 0 9.018-.826 13.249-2.439 25.604-10.051 10.776-36.508 3.945-53.219-6.298-15.407-11.516-29.512-19.287-44.472-8.048-15.495-16.131-31.38-23.031-47.394-4.471-10.766-.126-22.34-3.394-33.594-2.394-8.241-5.727-15.158-8.756-22.977-6.469-16.697-14.348-32.583-21.302-48.96 4.295-3.416 5.655-4.893 7.963-9.828l-1.317-5.543c2.968-3.703 4.962-7.696 4.819-12.731-.136-4.792-1.184-13.235-3.216-17.687-.581-1.273-3.445-4.193-3.863-5.826-3.066-11.973-2.862-15.549-11.838-24.648-.292-2.308-.723-5.383-1.672-7.48-9.151-20.237-27.926-41.237-51.901-32.2-8.568-7.375-16.32-12.214-26.664-17.061-25.073-11.75-54.076-24.043-80.908-30.539-12.785-3.095-39.489-2.9-53.005-2.88a769.342 769.342 0 0 0-50.003 1.377c-10.193.525-21.975 1.118-32.075 2.577a87.987 87.987 0 0 0-17.309 4.2c-18.913 6.771-30.84 18.704-42.724 34.508-3.355 4.462-8.945 12.465-12.83 15.946-22.827 20.45-49.657 39.197-68.696 63.297-3.65 4.62-6.918 11.162-9.475 16.517-.251-2.037-.295-4.2-1.739-5.591-4.894-1.877-13.46 1.299-18.152 3.321-24.389 10.51-43.843 35.712-32.306 62.526a782.255 782.255 0 0 0-20.779 39.565c2.484-8.572 4.165-18.967 2.74-28.531-2.326-12.689-7.571-28.191-16.847-37.422-3.872-3.853-8.109 3.928-9.601 6.812-7.722 14.92-12.206 32.853-7.08 49.353 3.932 12.659 11.235 18.948 22.493 24.925l-5.101 14.077a326.152 326.152 0 0 0-7.802 24.135c-.504-23.077-10.198-47.095-30.125-60.769-4.622-3.171-7.589 7.072-8.527 9.854-10.511 31.162 1.158 59.756 33.804 69.177-3.294 15.016-5.24 28.832-7.13 44.016a70.05 70.05 0 0 0-7.492-17.733c-7.575-12.66-20.592-23.094-35.192-26.793-1.396-.354-2.314-.294-3.537.447-1.856 2.503-2.122 5.891-2.236 8.938-1.237 32.919 12.752 57.062 47.288 58.846-.387 14.016.612 22.859 1.052 36.4-8.908-17.839-17.801-25.347-37.034-31.681-15.48-5.098-18.903-1.929-15.901 14.414 2.312 12.594 9.5 26.001 19.784 33.888 12.114 9.291 22.9 10.47 37.444 8.669 2.154 12.523 4.321 20.916 8.195 32.879-13.173-11.344-28.005-20.652-46.338-17.8-6.296.98-2.368 13.105-1.109 16.855 6.119 18.228 22.716 33.615 42.148 35.828 6.222.702 11.9-.817 17.713-2.908a413.892 413.892 0 0 0 12.624 25.615c-14.494-9.522-35.154-14.713-52.516-8.519-5.822 2.077 4.005 19.618 6.347 22.983a48.642 48.642 0 0 0 31.844 20.413c12.012 2.07 21.875.191 31.786-6.77 7.175 8.789 16.176 21.757 23.329 31.176-13.445-6.14-25.963-9.098-40.586-4.428-5.17 1.651-15.116 6.605-17.574 11.488-.258 2.076.575 3.625 1.761 5.286 12.475 17.477 33.312 24.338 54.166 21.36 10.622-1.517 16.557-4.726 25.31-10.901a606.897 606.897 0 0 0 16.235 13.417c8.501 6.81 44.566 34.847 53.59 33.759 1.113-.135 2.233-.206 3.351-.302 2.329 7.617-18.278 32.664 2.292 42.248 7.953 3.706 16.397 7.503 24.389 11.118a253.063 253.063 0 0 1 16.683 8.361c29.544 16.211 54.85 37.873 87.194 50.382 29.125 11.265 57.962 17.086 89.108 19.831 12.384 1.092 24.698.773 36.825 1.877-10.877 1.752-24.2 3.038-35.185 3.707A442.64 442.64 0 0 1 222.087 829.66 417.23 417.23 0 0 1 81.895 539.714a429.249 429.249 0 0 1 109.29-310.269A429.139 429.139 0 0 1 401.683 99.869a464.006 464.006 0 0 1 93.622-14.155Z"/><path fill="#2B2A2A" d="M772.614 265.067c26.225 1.865 49.865 20.023 53.603 47.226.899 6.54-.056 13.49-3.039 19.423 8.056 14.066 14.409 25.165 21.761 39.846-3.1-13.14-5.092-22.528-1.515-36.543 2.934-10.026 7.892-23.897 16.049-30.696 4.311-3.594 9.964 8.218 11.358 11.102 12.357 25.574 12.639 59.326-16.339 73.155 2.547 7.55 5.729 15.208 8.319 22.83 1.783 5.248 3.602 11.769 5.618 16.769.733-20.76 5.004-36.241 18.624-52.439 3.264-3.881 9.345-11.954 15.101-9.695 1.632 1.545 2.567 3.073 3.363 5.172 6.61 17.579 9.117 38.829-1.574 55.38-7.477 11.576-17.493 16.384-29.744 21.265 2.503 9.221 4.315 18.771 6.076 28.159.894 4.769 1.395 9.856 2.552 14.53 6.651-21.613 19.764-38.918 42.464-45.331.704-.199 2.562-.445 3.144.073 2.28 2.032 2.666 5.855 3.005 8.709 1.034 15.663-.975 33.232-11.695 45.477-10.218 11.67-20.478 15.117-35.306 16.34.831 14.007.307 22.805.054 36.694 3.601-7.842 7.303-13.875 13.632-19.813 7.106-6.791 15.885-10.754 25.191-13.538 2.707-.982 12.453-4.097 14.07-.29 6.723 15.818-6.641 41.642-18.997 50.7-12.592 9.231-23.7 11.234-37.324 9.477-1.909 12.425-3.656 20.868-6.602 33.191a78.502 78.502 0 0 1 11.507-9.836c9.554-6.605 22.634-11.593 34.494-10.116 5.3.79 5.112 6.576 4.328 10.499-5.705 28.526-32.071 52.184-61.694 41.581-3.82 9.244-7.19 17.24-11.497 26.287 14.13-9.374 36.052-16.088 53.558-9.913 5.772 2.036-2.941 19.222-5.154 22.786a49.843 49.843 0 0 1-31.045 22.536c-12.644 2.905-23.507 1.428-34.47-5.372a744.874 744.874 0 0 1-21.444 32.599c17.502-9.947 35.645-12.845 53.968-2.797 4.731 2.595 10.947 5.961 7.053 11.933-7.282 11.17-20.287 20.237-33.16 23.223-16.174 3.751-32.263.745-46.272-7.712-7.808 9.776-14.416 17.097-23.009 26.281 13.91-3.938 30.607-8.64 43.973-.12 7.951 5.078 8.111 14.613 2.587 21.652-13.289 16.932-41.789 17.555-59.868 8.863-4.422-2.126-8.275-4.982-12.116-7.925-10.376 10.237-27.862 22.853-39.749 31.371-8.873 6.145-18.016 12.326-27.644 17.183-5.395 2.528-9.848 3.557-14.065-1.444-3.47-3.459-2.389-11.252 1.324-14.299 8.108-6.652 19.046-12.453 27.914-18.087a368.618 368.618 0 0 0 31.709-22.714 116.794 116.794 0 0 1-3.203-3.398c-18.48-20.654-11.827-54.611 7.273-72.375 5.307-4.935 9.43 4.008 11.492 7.758 8.693 15.815 9.825 33.593 5.162 50.816a965.021 965.021 0 0 0 24.183-23.996c-17.753-15.295-20.462-35.379-15.512-57.544 1.159-5.195 4.879-17.963 8.917-21.331 6.925-2.198 17.408 14.254 20.471 19.365 8.121 13.551 8.401 26.656 4.399 41.622a433.269 433.269 0 0 0 24.466-32.259 106.424 106.424 0 0 1-6.004-3.529c-24.858-15.692-27.743-46.26-15.067-71.216 3.131-6.164 17.02 5.858 19.908 8.789 11.386 11.553 15.852 24.534 15.895 40.509 5.012-11.012 10.991-21.28 15.929-32.61-11.219-6.473-18.429-11.615-24.73-23.892-7.578-14.765-6.083-32.237-1.618-47.798.489-1.702 1.197-2.899 2.78-3.661 2.863-.274 5.433.984 7.899 2.331 15.205 8.308 24.482 23.684 27.92 40.144 3.804-12.421 6.363-23.224 9.143-35.892-37.622-1.641-49.07-30.889-42.64-65.016 1.085-5.76 10.681-.881 13.559.535 17.311 8.52 26.87 18.019 33.054 36.234.322-12.869 1.186-25.251 1.401-38.328-16.984.33-31.967-3.706-43.71-16.751-8.564-9.513-12.749-22.595-12.677-35.287.028-1.046.576-3.809 1.738-4.234 9.297-3.392 25.118 2.411 33.121 6.727 7.87 4.245 13.257 9.813 18.388 16.126-1.592-12.981-3.465-23.112-6.05-35.896-10.104 3.049-24.434 3.129-34.566.003a47.298 47.298 0 0 1-27.72-23.516c-2.589-4.956-5.135-11.604-3.39-17.127 1.91-2.299 4.21-2.573 7.164-2.988 20.626-2.899 32.871 1.158 49.089 13.065-3.119-9.748-6.116-18.539-10.094-27.966-3.332.888-6.593 1.879-9.938 2.629-27.384 6.136-54.61-6.948-63.037-34.526-2.424-7.936-.311-10.346 7.664-11.211 19.997-2.167 37.605 2.651 53.507 15.271a329.742 329.742 0 0 0-12.212-24.692c-3.924-.314-8.247-.712-11.951-1.887-21.57-6.843-34.37-27.581-36.478-49.362-.479-4.947-1.137-10.056.361-14.895.538-1.736 1.163-1.742 2.637-2.373Z"/><path fill="#FEFEFE" d="M828.241 345.632c7.946 13.964 16.246 28.623 22.424 43.426 29.284 70.244 39.344 147.317 18.373 221.295-28.423 100.263-100.314 181.68-187.151 236.692-3.652 2.314-6.789 3.749-9.63-.204-.376-1.661-.344-1.546.039-3.219 5.263-5.216 22.183-15.18 29.151-19.724a352.473 352.473 0 0 0 33.627-24.876c22.189-18.665 48.801-44.76 66.628-67.57a354.829 354.829 0 0 0 33.714-53.032c26.537-50.483 39.396-97.818 40.075-155.235.644-54.555-13.675-107.294-37.662-155.955-2.743-5.565-7.012-14.855-9.993-19.996l.405-1.602ZM929.133 521.611c2.929-.392 6.757-.311 7.032 3.641.541 7.765-3.232 17.013-7.088 23.554-9.399 15.945-22.719 21.315-39.897 25.436-2.197.437-4.572.801-6.794 1.186 2.721-28.078 18.91-47.964 46.747-53.817Z"/><path fill="#2B2A2A" d="m924.937 535.493.288.367c-.098 1.438-.259 1.744-.945 3.081-7.386 14.383-25.227 29.811-40.567 34.692l-.397-.485c1.966-2.206 12.944-9.846 16.311-12.478 10.689-8.352 16.903-14.907 25.31-25.177Z"/><path fill="#FEFEFE" d="M899.48 369.31c.452.229.821.337 1.028.794 4.739 10.472 5.925 26.865 3.358 37.569-4.101 17.101-13.343 25.152-27.094 33.934l-3.699 1.959a100.152 100.152 0 0 1-.259-15.394c1.243-23.279 9.072-43.076 26.666-58.862Z"/><path fill="#2B2A2A" d="M893.894 392.234c2.204 4.561-.494 16.879-1.82 21.643-2.869 10.305-7.491 17.882-15.043 25.295-.395-1.425 3.828-6.99 4.85-8.957 6.364-12.258 8.995-24.722 12.013-37.981Z"/><path fill="#FEFEFE" d="M773.473 270.016c17.882 1.706 33.683 11.624 42.273 27.732 4.764 8.932 6.496 18.623 3.35 28.415-6.789-16.015-15.033-24.95-27.27-37.07-.283-.235-.043-.084-1.025-.425.194 2.43 9.119 12.782 11.127 15.418 5.681 7.456 11.176 14.22 14.977 22.975-27.859-5.549-41.589-30.313-43.432-57.045ZM772.911 348.579c11.083-2.539 27.491-.528 38.027 3.651 14.338 5.687 21.503 12.79 27.697 26.553l.818 1.543c-.041.658.05.292-.453 1.039-8.079 1.974-24.802 1.541-32.933-1.018-16.385-5.157-25.445-17.228-33.156-31.768Z"/><path fill="#2B2A2A" d="M788.495 361.225c13.909 3.64 36.401 12.255 50.14 17.558l.818 1.543c-3.223-.943-8.544-1.71-12.277-2.67a133.511 133.511 0 0 1-38.681-16.431Z"/><path fill="#FEFEFE" d="M852.023 381.695c-7.654-24.55-8.803-40.621 3.271-64.318 1.673-3.283 3.916-6.942 6.241-9.823 14.05 21.92 16.238 52.679-3.295 72.096-1.382 1.373-2.315 2.817-4.105 3.584l-.181-.428-1.931-1.111Z"/><defs><linearGradient id="a" x1="854.238" x2="858.582" y1="361.009" y2="362.069" gradientUnits="userSpaceOnUse"><stop offset="0" stop-color="#171715"/><stop offset="1" stop-color="#353334"/></linearGradient></defs><path fill="url(#a)" d="M852.023 381.695c2.777-9.4 4.599-16.289 5.904-26.229.733-5.583.811-11.755 1.549-17.021 1.64 12.388 1.298 21.411-2.153 33.633-.591 2.092-3.311 9.205-3.369 10.728l-1.931-1.111Z"/><path fill="#FEFEFE" d="M888.205 663.699c3.751-.3 11.797-.941 14.929.986.218.491.366.911.225 1.464-4.524 17.715-20.225 30.146-37.956 33.037-10.331 1.685-19.635.546-29.776-1.434 14.367-.823 26.414-4.013 39.113-10.693 6.194-3.495 8.063-4.773 13.042-9.775-6.63 2.732-13.226 6.326-19.93 9.19-10.328 4.413-18.842 6.382-29.609 8.751 2.423-4.657 4.881-9.575 8.234-13.622 9.871-11.918 27.021-16.365 41.728-17.904ZM806.548 405.185c11.234-1.743 28.179 1.852 37.495 8.56 10.259 7.387 13.669 14.83 15.97 26.818l-6.138.057c-7.873-.04-13.794-.328-21.45-2.557a47.819 47.819 0 0 1-29.033-23.297c-1.253-2.298-3.329-5.722-2.593-8.17 1.856-1.143 3.552-1.134 5.749-1.411Z"/><path fill="#2B2A2A" d="M817.035 421.066c6.712 1.253 35.498 13.449 41.257 17.345-9.163.087-34.867-10.733-41.257-17.345Z"/><path fill="#FEFEFE" d="M793.478 783.686c38.48-5.436 26.424 30.494-15.598 28.66-9.897-.931-17.447-4.62-25.28-10.51 2.6-2.298 7.611-7.565 10.147-9.282 7.025-4.756 22.232-7.646 30.731-8.868Z"/><path fill="#2B2A2A" d="M764.434 797.906c.793.037 12.66 2.448 12.951 2.62 5.638 3.331 25.399-1.888 27.891-1.217l-.975.765a69.069 69.069 0 0 1-6.529 2.202c-7.353 1.998-30.903 5.958-33.338-4.37Z"/><path fill="#FEFEFE" d="M846.657 729.733c10.005.172 17.593 1.013 25.55 7.676-5.914 7.013-14.646 13.329-22.934 17.239-15.187 7.164-39.076 5.858-54.475.013 14.734 1.217 19.11 1.484 33.818-2.23 10.577-3.199 17.036-5.235 26.923-10.686-7.144 1.543-14.825 4.198-22.073 6.034a176.895 176.895 0 0 1-34.633 4.863 223.219 223.219 0 0 1 5.182-6.189c11.021-12.44 26.769-15.789 42.642-16.72ZM925.697 449.376c.781.275.74.428 1.416 1.083 2.933 7.72.281 22.355-2.739 30.05-6.904 17.6-25.808 24.788-42.073 31.686 3.122-2.868 8.455-6.225 12.005-9.013 10.169-7.987 16.345-17.545 20.871-29.458.541-2.09.72-2.533.724-4.648-.36.156-4.903 8.071-5.63 9.247-5.618 9.086-11.637 17.565-19.51 24.882-1.894 1.759-3.653 4.302-5.981 5.5-1.191-3.527 2.328-17.381 3.697-21.406 6.437-18.929 19.721-29.472 37.22-37.923ZM796.133 634.664c18.241 9.579 28.171 31.066 25.275 51.181-.91 6.318-2.9 10.91-5.35 16.708-3.632-14.291-6.398-24.781-13.021-38.058-.817-1.172-1.133-2.166-2.163-2.38.064 3.773 10.471 32.318 12.388 38.913-7.844-8.102-16.76-16.976-20.429-27.821-4.198-12.409-2.502-26.92 3.3-38.543ZM818.453 460.923c17.085.689 36.207 7.95 45.924 22.659 4.345 6.577 5.419 13.369 6.363 21.01-12.855-9.429-26.174-20.787-39.397-29.031.935 1.336 2.225 2.846 3.264 4.136 11.151 12.087 24.704 19.846 37.809 29.234-17.13-2.12-36.122-8.907-45.771-24.071-4.211-6.619-8.157-16.001-8.192-23.937ZM826.555 517.121c19.585 6.388 40.893 27.857 40.979 49.557.009 2.454-.368 4.952-.759 7.371-8.104-8.437-16.019-15.871-22.888-25.486-1.452-2.031-6.502-9.436-8.22-10.145 3.888 15.213 19.247 30.041 32.502 37.599-12.707-2.362-25.381-7.343-33.151-18.256-7.476-10.499-10.594-28.103-8.463-40.64ZM766.115 682.755c8.335 6.39 15.907 19.003 18.429 29.125 3.624 14.541.003 26.498-7.339 38.977-.826 1.093-.762 1.049-1.908 1.792-1.651-.424-4.282-4.444-5.352-5.902-13.516-18.426-12.598-43.636-3.83-63.992Z"/><path fill="#2B2A2A" d="M769.867 715.799c3.706 4.394 6.608 25.194 6.55 31.393-3.512-2.704-6.776-26.497-6.55-31.393Z"/><path fill="#FEFEFE" d="M821.93 577.597c10.496 4.184 21.443 16.686 25.728 27.004 5.819 14.008 4.306 26.055-1.086 39.693-4.181-16.579-5.576-25.647-14.737-40.658-.685-1.012-.784-1.077-1.617-1.981l-.348.506c.504 2.366 1.471 4.559 2.377 6.792 4.612 11.368 8.557 23.002 12.642 34.567-22.803-16.309-30.239-38.855-22.959-65.923ZM732.689 726.459c.188.183.454.422.789.906 8.732 12.848 12.257 28.7 10.211 44.073-1.431 10.752-4.437 16.468-13.066 23.169-6.124-10.378-11.359-19.572-11.993-31.96-.698-13.634 5.107-26.195 14.059-36.188Z"/><path fill="#242323" d="M726.554 760.757c5.154 3.65 6.285 19.458 5.9 25.404-2.892-5.368-6.064-19.268-5.9-25.404Z"/><path fill="#FEFEFE" d="M914.869 596.638c1.741-.191 4.3-.367 5.851.352 2.692 6.108-7.93 22.209-12.302 26.705-12.361 12.711-28.067 17.399-45.409 17.937 17.789-4.309 31.392-11.967 42.285-26.765 1.706-2.516 2.495-4.211 3.806-6.905-13.752 14.957-26.494 22.737-44.152 31.561 3.63-13.05 7.641-21.558 18.817-29.616 9.799-7.065 19.278-11.056 31.104-13.269Z"/><path fill="#B4B4B9" d="M827.836 347.234c-1.54-2.656-5.404-9.923-6.296-12.583 2.238 2.468 5.185 7.89 6.701 10.981l-.405 1.602Z"/><path fill="#FEFEFE" d="m694.797 307.447.641.263c1.019 1.284 3.296 6.468 4.199 8.315a818.59 818.59 0 0 1 23.109 52.731c1.748 4.483 6.367 16.105 7.151 20.546 1.79 10.14-.925 18.247 3.021 28.988 5.816 16.181 14.703 30.316 22.464 45.596 10.562 20.794 18.698 43.517 26.715 65.428 1.608 4.393 2.354 11.744-.44 15.675-8.519 11.988-26.541 6.598-38.675 8.548-2.907.481-5.849 3.03-7.196 5.689-6.352 12.537-1.484 24.843 2.28 36.916-4.267-.271-8.686-1.565-13.079-1.874-8.999-.633-20.465 6.61-28.823 10.912 8.14-1.882 17.506-4.035 25.665-5.49 6.27 2.827 7.924 3.398 14.716 4.336l-3.994 3.401c-18.047-6.084-34.408-.778-51.462 6.332 1.685-4.47 3.176-8.191 1.911-12.973l-.69-.378c-6.977 4.589-8.33 24.828-8.358 32.363 2.003-3.779 3.811-8.798 5.402-12.855 13.475-3.961 24.903-11.776 39.546-10.141 5.847.652 13.4 3.598 12.452 11.124-.726 5.76-8.14 8.977-12.408 11.961-2.952 1.75-8.596 7.589-8.539 11.349.263 17.432 21.263 25.872 16.828 45.827-3.507 15.779-15.931 22.067-30.286 26.277-10.021 2.938-19.728 3.902-29.923 5.749-21.758 3.702-43.62 7.294-65.769 6.917-13.477-.211-25.789-2.473-39.014-4.842 22.004 10.59 40.218 13.133 64.077 13.474-5.309 8.141-6.186 16.262-5.873 25.813.38 11.565 1.493 23.088.971 34.67-1.017 22.604-9.1 44.547-6.921 67.316 1.89 13.946 7.096 27.441 11.137 40.842 3.274 11.164 2.417 14.051-9.281 16.879-10.895 2.641-21.958 2.503-33.093 2.356-49.759-.722-100.312-7.835-144.783-31.413-5.055-2.68-9.987-5.299-14.961-8.153-15.643-8.973-30.61-19.104-46.119-28.282a681.962 681.962 0 0 0-23.318-13.137c-6.235-3.277-18.975-8.693-23.474-12.687-1.521-3.68-2.054-8.411-1.065-12.243 5.78-22.391 14.92-42.242 19.645-65.178 7.566-36.73 5.187-73.323 9.495-110.152 27.835 13.576 57.226-9.94 68.422-34.912l-6.796 7.114c-10.001 10.426-30.546 21.09-45.386 21.625-7.675.276-13.848-3.02-19.372-8.095-13.047-11.988-22.749-44.396-23.089-61.75a81.681 81.681 0 0 0 2.856-5.344c3.409-7.166 2.614-12.916.055-19.986 4.436-8.985 1.407-13.57-3.212-21.548 6.195-2.279 15.205-3.64 21.801-4.59.274 5.009 1.701 11.758 1.399 16.469-.446 5.561-1.895 10.822-2.595 16.373-2.454 19.464 5.222 50.567 27.228 55.779 9.733 2.305 17.413-1.77 25.292-6.83-9.362 11.301-25.767 21.026-40.497 13.869-12.864-6.25-20.778-36.977-20.404-49.919.558-19.345 4.342-25.101-1.41-44.448.363 16.053-.487 26.319-3.176 42.008-1.35 14.599 2.326 30.39 7.654 43.68 8.685 21.663 29.854 29.923 50.974 20.379 15.924-7.195 23.103-18.427 29.045-34.278-14.407 20.174-23.636 31.5-50.316 32.056 24.78-6.867 35.755-16.479 43.287-41.705a628.48 628.48 0 0 0 12.855-5.684c7.562 8.779 13.143 17.353 25.085 20.492 11.18 2.939 20.513-1.091 26.535-10.84 1.903-3.081 5.464-8.905 3.41-12.35-3.818-1.01-10.165 11.885-19.457 11.617-15.093.599-20.966-12.273-31.258-19.77-27.205-19.819-42.945-28.517-43.64-65.151 4.851-4.09 8.339-7.54 12.691-12.067-.468 6.657-.999 18.611 1.115 24.892 1.455 4.322 12.134 21.698 15.011 24.99a28.659 28.659 0 0 0 7.88 6.323c8.442 4.585 17.001.744 25.378 1.429 6.561.536 15.676 8.133 20.664-1.997 4.035-8.195-7.192-17.546-9.676-25.574-4.313-13.937 10.315-18.246 14.852-29.379 5.557-12.742 1.145-26.853-3.109-39.108 4.527 3.198 8.518 5.965 13.324 8.667 14.13 7.943 45.728 14.253 61.383 9.312-4.568-3.339-17.234-12.776-19.173-19.842-.126-.461.73-6.508.71-7.652-.17-9.984.655-19.821 3.765-29.373 4.893-17.285 15.027-28.862 26.68-41.689 9.395-10.343 9.69-12.329 22.38-19.022 2.009 14.34 4.734 19.024 17.816 26.152-4.063-10.377-3.366-19.56-.35-30.147 12.166-4.41 15.975-7.443 26.241-15.416 14.272-1.407 24.122-7.367 36.056-15 11.873.14 17.088-.574 27.191-6.555Z"/><path fill="#242323" d="M640.434 460.279c13.746-15.089 34.348-39.762 56.532-41.907 1.666-.161 2.382.377 3.383 1.406 1.143 4.996-5.033 8.342-5.897 12.967l-.17.887c-1.586 8.656.062 26.51-7.344 32.094-7.277 5.487-29.204-3.246-32.092-11.752l-5.515 5.407c9.243 6.691 29.608 22.302 40.061 10.051 2.064-2.418 3.159-10.176 4.365-11.203 1.59 3.527.386 12.678-.325 16.529-1.586 8.58-5.272 15.873-11.732 21.774 2.107-6.25 3.773-11.597 5.503-17.958-20.377 1.931-25.026-4.309-41.147-15.909a396.18 396.18 0 0 0-5.622-2.386Z"/><path fill="#FEFEFE" d="M654.846 453.974c6.166-6.577 16.844-19.106 26.578-20.861 4.458-.804 5.003 5.106 5.161 8.433.481 14.966.079 27.62-18.975 20.016-4.767-1.902-8.543-5.641-12.764-7.588Z"/><path fill="#2B2A2A" d="M689.492 381.701c7.036-.512 13.985-.254 20.687 2.324 5.396 2.075 14.594 7.623 11.248 14.71-1.184 2.509-3.886 6.177-6.939 6.342-2.872.155-5.735-2.036-8.527-2.638-9.135-1.898-22.068 1.884-30.102 5.834-24.677 12.133-41.292 39.055-67.202 49.342 8.855-6.535 17-12.714 25.005-20.253 22.848-21.516 33.414-38.687 66.576-43.112 4.521-.541 10.18.093 14.803.459-12.461-6.826-22.434-6.275-35.995-2.443-27.569 7.79-45.123 27.891-63.988 47.785-5.607 5.912-14.94 14.023-22.045 17.997l-.651.36c16.19-15.835 30.329-34.6 46.264-50.819 14.826-15.092 29.733-23.864 50.866-25.888Z"/><path fill="#242323" d="M458.919 632.219c3.306 1.297 8.573 6.785 11.208 9.39 22.782 22.524 51.286 41.51 83.105 47.886 2.271.455 7.274 1.253 8.703 2.737-17.331 3.138-40.631-4.237-56.091-11.715-21.21-10.259-38.975-25.651-46.925-48.298ZM693.84 404.625c4.239-.431 9.159-.615 11.452 3.781.767 6.391-5.862 6.339-10.276 6.425-13.083.257-23.371 5.95-32.718 14.806-16.563 15.693-27.348 27.817-49.897 34.888-4.254.983-7.681 1.282-11.997 1.725 2.547-1.345 6.723-2.887 9.524-3.99 19.114-7.461 33.423-23 47.731-37.104 11.807-11.64 19.85-17.617 36.181-20.531ZM716.253 520.577c2.181-.157 2.764-.147 4.929.146-1.673 1.593-4.5 2.223-6.455 3.918-4.979 4.539-7.493 9.334-8.125 16.282-.461 5.06.867 14.063 8.239 13.193 1.444-.171 4.497-2.21 5.815-3.071 7.946-5.196 15.592-11.761 25.719-11.315 7.876.218 16.265 2.834 21.829 8.549-3.897 5.746-20.701 1.912-27.42 1.249-5.184 2.711-11.555 7.895-16.597 9.926-26.672 10.744-31.164-30.72-7.934-38.877Z"/><path fill="#2B2A2A" d="M477.243 821.347c2.651 1.325 9.965 6.867 12.482 8.714 12.759 9.362 30.605 23.463 38.846 37.25-3.616-1.493-12.859-10.465-16.661-13.398-12.989-10.022-28.378-16.418-34.667-32.566ZM455.739 776.281c2.037.723 7.522 4.56 9.478 5.956 13.915 9.926 28.803 20.866 37.27 36.029-3.032-1.521-9.48-7.111-12.528-9.445-12.784-9.788-26.985-17.454-34.22-32.54ZM465.892 798.265c2.048.586 7.5 4.862 9.467 6.242 14.703 10.316 29.571 22.062 39.612 37.221-2.871-.957-11.227-8.63-14.159-10.86-13.233-10.064-27.713-16.729-34.92-32.603ZM436.685 727.858c3.769 1.559 30.716 25.456 34.331 30.168 3.504 4.566 6.577 8.313 9.264 13.698-1.849-.713-8.547-6.428-10.489-8.061-12.138-10.205-27.08-20.541-33.106-35.805ZM445.523 751.743c5.597 2.275 29.291 22.983 34.055 28.391 3.327 3.777 8.039 10.179 10.821 14.58-1.652-.627-8.775-6.608-10.496-8.041-12.286-10.228-27.95-19.632-34.38-34.93ZM428.919 702.86c3.227 1.709 30.188 30.315 33.587 34.442a86.621 86.621 0 0 1 9.232 13.361c-2.13-.975-9.171-7.358-11.294-9.352-11.139-10.466-27.76-23.021-31.525-38.451Z"/><path fill="#242323" d="M490.503 845.745c8.202 3.028 30.361 21.326 37.083 28.067a91.137 91.137 0 0 1 10.774 12.819c-6.731-2.586-33.201-23.947-39.013-29.619-2.907-2.836-6.567-7.788-8.844-11.267Z"/><path fill="#2B2A2A" d="M424.759 684.418c5.335 3.383 25.103 25.969 30.436 31.92 2.062 2.301 5.761 8.532 7.323 11.414-.346-.152-.817-.344-1.086-.553-11.422-8.879-33.639-29.067-36.673-42.781ZM422.09 664.333c2.827 1.626 22.888 26.975 25.488 31.303 2.337 3.891 4.551 7.67 6.13 12.092-2.231-1.163-6.132-5.977-7.997-8.063-9.416-10.538-20.275-21.145-23.621-35.332Z"/><path fill="#242323" d="M603.929 698.665c1.357-.126 2.289-.376 3.496.202l.058.726c-7.198 9.222-36.306 9.864-47.112 8.772l-8.474-1.619c11.927.034 21.728-1.281 33.337-3.967 5.847-1.353 12.893-3.455 18.695-4.114Z"/><path fill="#2B2A2A" d="M505.333 868.46c5.698 2.322 26.211 19.36 31.645 23.833 2.603 2.142 7.342 7.557 9.538 10.346-9.596-3.194-35.634-25.399-41.183-34.179Z"/><defs><linearGradient id="b" x1="607.467" x2="612.008" y1="718.04" y2="698.068" gradientUnits="userSpaceOnUse"><stop offset="0" stop-color="#18191A"/><stop offset="1" stop-color="#332F30"/></linearGradient></defs><path fill="url(#b)" d="M630.568 702.063c1.607-.237 1.024-.367 2.412.159l-.065.825c-8.488 8.994-32.515 10.816-44.196 11.253-1.653.039-1.592.106-3.123-.454 2.512-1.096 14.045-3.371 17.639-4.334 9.104-2.44 18.24-4.951 27.333-7.449Z"/><path fill="#2B2A2A" d="M695.909 539.966c.405.901.528.728.402 1.563-2.306 15.339-19.665 30.756-31.18 39.943l-.3-.22c.574-1.295 8.502-10.219 10.168-11.986 8.187-8.685 13.468-20.513 20.91-29.3Z"/><path fill="#242323" d="M654.776 703.621c1.263-.067.76-.287 1.632.411-.904 1.9-3.789 3.04-5.615 3.96-10.411 5.245-23.418 6.985-34.918 7.047l-1.267-.063-.269-.549c2.642-1.186 8.242-1.749 11.674-2.715 9.614-2.706 18.945-6.272 28.763-8.091ZM572.857 695.705c1.753-.231 3.423-.494 4.84.424-3.025 7.211-26.832 4.5-33.064 3.304a174.102 174.102 0 0 1-7.296-1.771c5.235-.421 11.595-.005 16.994-.288 6.255-.327 12.303-1.005 18.526-1.669Z"/><defs><linearGradient id="c" x1="655.81" x2="651.59" y1="716.36" y2="707.938" gradientUnits="userSpaceOnUse"><stop offset="0" stop-color="#17191B"/><stop offset="1" stop-color="#383535"/></linearGradient></defs><path fill="url(#c)" d="M674.658 705.378c-1.099 1.158-1.961 1.834-2.437 3.349-.856.74-1.336 1.24-2.316 1.816-12.776 3.476-24.047 6.425-37.466 6.444 14.001-3.572 28.702-8.566 42.219-11.609Z"/><defs><linearGradient id="d" x1="426.618" x2="439.807" y1="667.584" y2="665.027" gradientUnits="userSpaceOnUse"><stop offset="0" stop-color="#202523"/><stop offset="1" stop-color="#362C2E"/></linearGradient></defs><path fill="url(#d)" d="M422.498 649.674c5.687 2.696 19.478 27.923 21.992 34.483-5.61-3.562-19.438-27.078-21.992-34.483Z"/><path fill="#242323" d="M691.434 704.936c-5.038 2.332-15.783 4.732-21.529 5.607.98-.576 1.46-1.076 2.316-1.816 6.272-1.285 12.937-2.76 19.213-3.791Z"/><path fill="#D22929" d="M291.69 277.691c4.656-6.4 8.695-13.549 12.916-20.257 16.445-26.133 42.694-71.133 67.593-89.02 7.58-5.446 15.672-9.661 24.789-11.831 23.628-5.625 107.354-6.298 132.206-2.314-8.428 6.134-18.156 9.892-26.436 17.311 9.574-3.648 27.418-14.163 36.243-14.875 11.645-.939 75.189 28.177 87.087 34.666 4.403 2.402 8.231 5.101 12.055 8.343-6.416 4.352-10.838 5.595-18.177 11.25-21.004-.348-19.96 7.988-33.455 17.835-19.113 1.446-32.595 5.117-49.41 15.321-5.339 3.239-10.225 7.677-15.582 10.89l-.54.317c-14.077.269-22.076 1.366-33.9 10.648-2.979 2.338-5.215 5.079-8.29 7.453l-.438.331c-3.739.088-5.886.021-9.622.775-4.884.985-9.578 4.854-13.614 6.362-7.904 2.954-12.305 2.678-19.855 7.767-5.088 3.429-10.666 9.285-15.6 11.941-3.472 1.869-11.457 1.692-16.478 3.543-7.047 1.749-14.068 9.032-20.354 11.281-7.047 2.52-12.905 3.223-20.299 6.407-1.431 1.287-11.2 6.348-13.108 7.292 6.014-7.25 14.966-12.887 23.165-17.55 1.527-.702 3.384-2.111 4.802-3.103-2.845.739-4.716 1.234-7.482 2.271-.814-.702-1.836-1.166-2.851-1.884.05-1.277.188-2.427.327-3.691 5.446-4.347 10.125-8.631 15.857-13.008 7.915-6.044 18.785-12.54 26.087-18.69-15.223 5.831-26.301 12.203-39.123 22.205-2.429 2.265-9.127 7.055-12.132 9.483 3.678-5.63 5.587-9.981 10.415-14.902 16.001-17.958 27.067-28.375 45.785-42.38 8.087-6.051 60.424-41.8 62.982-46.263-1.84.536-17.144 9.672-19.622 11.207-30.317 18.787-61.578 37.688-86.196 63.783-2.772 3.89-6.591 7.789-10.012 11.102 1.629-4.1 3.753-9.705 6.285-13.264 4.432-9.773 11.938-23.514 17.064-32.751 8.206-14.789 31.34-58.865 49.449-59.933 1.328.943.782.308 1.261 2.298l.047 1.448c.986.89 1.523.908 2.812 1.285 1.139-1.815 3.075-5.165 2.152-7.256-5.217-11.823-27.68 6.841-31.777 11.496-13.862 15.75-23.556 34.208-33.68 52.403-7.858 14.516-16.08 29.335-23.642 43.879 3.506-17.366 10.73-39.006 15.701-56.635-10.795 18.587-20.412 48.592-25.179 69.332-6.778 29.492-12.693 61.053-17.698 90.875-5.806 34.591-17.469 63.39-31.441 95.276-1.955 4.462-4.008 8.8-9.574 8.453-1.776-.622-2.459.048-4.151-.828-.898-.374-3.684-1.429-3.875-2.037-1.682-6.157-2.181-12.931-3.24-19.294-7.083-42.558-13.786-85.497-17.61-128.47-1.257-14.126-1.17-27.525.935-41.429 4.031-26.614 21.89-43.834 41.351-60.445 7.471-6.508 14.701-13.601 22.918-19.422-10.346 20.557-19.981 31.384-27.841 55.003Z"/><path fill="#4B1E1E" d="M283.635 340.703c1.005 10.596-.662 34.249-1.147 45.299a1067.354 1067.354 0 0 0-.426 83.149c.24 7.068.182 19.159 1.141 25.462-1.776-.622-2.459.048-4.151-.828.803-2.737-.514-27.215-.639-32.527-.354-13.007-.473-26.02-.355-39.032.243-23.904 2.019-57.662 5.577-81.523Z"/><path fill="#A62F2C" d="M349.421 329.127c6.014-7.25 14.966-12.887 23.165-17.55-1.601 5.9-5.716 5.98-10.579 9.291l.074.622.448.345c-1.431 1.287-11.2 6.348-13.108 7.292Z"/><path fill="#4B1E1E" d="m435.482 184.057.047 1.448c.986.89 1.523.908 2.812 1.285-4.139 4.555-13.251 10.574-18.908 13.13 5.679-4.598 12.654-9.473 16.049-15.863Z"/><path fill="#A62F2C" d="M358.071 305.16c3.678-5.63 5.587-9.981 10.415-14.902l-.112.516c-.462 2.073-.556 2.368-1.441 4.261l.313.755c.837-.027 2.172-.023 2.957-.113-2.429 2.265-9.127 7.055-12.132 9.483ZM361.423 287.707c1.629-4.1 3.753-9.705 6.285-13.264-.36 1.889-.908 2.794-.27 4.207 1.604-.236 2.624-1.13 3.997-2.045-2.772 3.89-6.591 7.789-10.012 11.102Z"/><path fill="#FEFEFE" d="M655.443 199.616c8.604.104 14.166 2.68 20.703 8.058-4.961.76-7.441 1.183-12.199 2.724 15.439 1.34 19.493 1.345 27.009 16.244l-9.952-.425.423.438c12.051 12.667 16.041 8.262 22.783 28.306-2.764-.225-5.82-.312-8.616-.443 8.015 4.638 11.245 6.238 15.714 14.557-2.834-.86-5.765-1.658-8.619-2.471 8.173 6.461 14.637 15.419 5.925 24.476-.456-2.638-1.109-5.162-1.742-7.761-2.625 12.484-17.549 19.697-28.448 22.951 6.679-6.35 9.143-8.377 12.768-17.01-11.614 12.656-22.484 16.782-37.527 24.226-3.819 1.89-7.515 3.797-11.557 5.191 4.284-4.139 7.899-8.29 11.704-12.826-21.421 12.123-28.032 23.766-53.504 32.322a98.618 98.618 0 0 0 12.31-11.631c-18.327 8.644-33.544 22.578-53.81 27.866a438.902 438.902 0 0 0 5.807-8.729c-19.323 14.88-25.49 23.215-50.037 32.634a522.435 522.435 0 0 0 8.034-13.287c-16.698 13.058-24.596 26.993-49.117 29.873 1.415-2.235 2.798-4.52 4.186-6.775-3.676 2.12-7.524 5.247-10.821 7.951-8.513 6.978-13.988 10.695-24.303 14.267 4.872-5.03 7.767-8.22 11.553-14.062-15.533 11.968-38.88 31.178-58.521 31.222 4.635-4.193 8.376-7.677 12.707-12.176-16.503 6.568-23.901 18.635-44.872 25.896 5.247-4.586 6.867-6.077 10.668-11.826-8.347 5.941-14.331 10.288-24.156 13.809-7.148 2.561-15.064 4.405-21.885 7.423l-.9.403c4.851.497 7.614.393 12.43-.039-5.941 3.974-7.734 3.866-14.484 2.591l-1.61-.919c.87-1.788 9.338-8.12 11.377-10.35 1.764-1.929 3.235-3.625 4.942-5.792-5.16 2.263-19.607 12.932-22.675 12.329.449-2.224 4.47-5.686 6.234-7.291 4.712-4.284 8.417-8.253 12.27-13.349-4.741 2.223-9.573 6.233-13.672 7.844l-.335-.771c1.848-6.962 12.702-15.56 17.562-22.139l.417-.572c-5.442 2.748-8.814 5.246-13.701 8.913 1.456-6.654 2.779-9.207 8.019-14.034 4.084-3.763 8.254-7.731 11.979-11.85-6.662 2.856-9.715 5.033-15.714 9.051.545-4.624.836-6.344 1.985-10.944 3.169-3.306 12.029-10.056 16.177-13.605-6.844 2.372-9.198 3.416-15.398 7.389.506-3.555.949-6.056 1.757-9.55 3.995-3.596 10.809-7.913 15.617-11.928-5.918 1.514-8.555 2.474-13.958 5.277l-.662-.243.623-3.759c4.666-4.192 12.75-9.378 18.263-13.74-6.394 2.44-11.484 4.96-17.499 8.046a148.67 148.67 0 0 1 1.135-5.729c5.452-4.901 16.789-11.806 23.381-16.052-9.568 2.514-14.448 4.829-22.946 9.318a49.905 49.905 0 0 1 1.808-2.548c7.982-10.414 20.91-16.526 33.734-18.388 5.382-6.579 19.596-8.62 28.068-11.343l-8.227-.727c7.057-4.689 12.37-6.306 20.581-7.49-2.669 3.254-4.381 5.475-6.71 8.962 15.269-11.316 23.376-22.498 43.224-28.381-2.957 3.377-4.753 5.395-7.12 9.173 9.512-7.33 16.996-14.837 29.031-16.739l-3.882 7.201c14.613-12.671 25.029-23.5 45.251-25.436 8.019-.768 15.013-1.796 22.196-5.599l-8.646.556c14.416-11.822 34.677-19.731 53.187-21.169-2.569 3.064-6.68 6.481-9.751 9.201 15.57-5.284 23.689-18.906 38.553-26.505-2.344 3.823-4.405 7.279-6.546 11.215 9.764-6.866 22.31-16.528 33.168-21.132.897-.381 6.458-.754 8.668-1.301l-2.135-1.631.17-.684c4.012-2.273 7.457-2.149 12.047-2.502-1.763-.774-3.404-1.216-4.273-2.711 1.082-1.174 2.71-1.216 4.382-1.539ZM250.333 375.393c.974 1.329 5.027 34.538 5.495 37.99a4171.408 4171.408 0 0 0 10.891 76.721c-5.781 1.904-6.735 2.467-10.347 7.058-.804.198-1.605.411-2.402.639-10.647 3.083-15.79 12.322-21.88 20.856-1.891 2.651-2.073 7.375-2.986 10.289-3.579 11.419-3.689 21.532.135 32.962 1.747 5.806 3.81 5.398 6.176 9.26 3.899 6.363 5.218 14.845 13.538 18.397 11.796 5.036 24.843 8.249 37.824 8.529 2.684.058 8.386-2.019 10.922-2.886 6.758 25.211 26.436 57.581 47.47 72.988-1.662 45.586-2.943 80.468-18.696 124.186-.618-2.227-1.302-4.787-3.148-6.31-7.559-6.24-16.896-10.995-25.101-16.349-10.146-6.62-19.417-13.739-28.92-21.143a152.55 152.55 0 0 0 3.736-4.488c13.962-17.505 12.331-42.053 1.952-60.839-1.797-3.254-3.397-7.483-6.311-9.799-5.142-1.431-10.38 6.662-12.857 10.449-9.57 14.63-9.875 31.049-6.323 47.711-7.964-7.878-16.522-16.464-23.853-24.901 15.427-12.519 23.849-24.43 22.672-45.294-.4-7.081-3.163-23.216-8.275-28.266-5.403-5.337-18.647 9.945-21.809 13.764-8.682 12.338-10.495 21.049-10.74 35.896-6.141-10.544-11.32-19.813-16.721-30.724 24.7-14.95 31.989-37.986 24.32-65.765-2.031-7.359-2.822-13.032-12.035-7.21-15.528 9.813-22.114 23.212-25.891 40.567-3.869-11.943-6.678-22.499-9.818-34.643 29.188-1.216 42.539-22.349 41.536-50.051-.159-4.38-.371-14.359-3.516-17.22-3.121-.933-9.788 1.96-12.703 3.538-18.228 9.872-23.688 17.141-30.092 35.519-1.465-11.559-2.201-25.601-2.591-37.214 15.377-.244 27.818-3.384 39.179-14.436 9.936-9.665 14.267-22.972 14.605-36.616.039-1.604.015-3.669-1.386-4.713-2.325-1.982-8.603-.974-11.59-.461-16.717 2.872-28.588 9.982-38.427 23.617.302-9.698 2.867-25.215 4.38-35.03 1.891.415 3.791.789 5.699 1.121 13.825 2.31 27.115.963 39.932-7.722 6.866-4.653 22.878-23.992 17.045-34.515-1.216-2.193-10.375-3.053-13.562-3.107-15.828-.269-28.962 4.073-40.58 15.014 1.721-7.871 6.664-20.527 9.77-28.024 25.87 9.198 49.624 3.836 65.283-19.345Z"/><path fill="#FEFEFE" d="M265.386 497.757c12.799-2.136 14.988 6.401 20.869 6.814-.316-1.011-.155-.597-.606-1.606l-.33-.725c1.009-1.674 6.313-3.534 8.358-4.073 6.127-1.616 9.288-.259 14.358 2.585a189.7 189.7 0 0 0-4.384.45c-2.43.286-5.322.532-6.869 2.485 2.165 1.075 4.817.798 7.35 1.13 7.476.977 13.051 4.793 17.819 10.29l-8.43-.285c9.628 5.201 15.175 9.747 16.742 21.213-1.906-1.456-4.117-2.773-6.157-4.061 4.521 10.654 7.567 16.768 4.327 28.458-1.426-6.133-1.894-8.664-4.835-14.129 1.623 13.616-.428 26.151-11.728 34.941 4.01-7.165 4.661-9.569 5.45-17.821-7.371 18.653-19.169 22.686-37.67 18.465 4.724 2.722 6.292 3.59 11.718 4.537l6.854.384c-16.044 7.313-26.301 3.839-36.819-9.867 1.621 5.603 2.306 6.977 5.725 11.679a62.767 62.767 0 0 1-3.142-1.501c-8.527-4.432-11.43-10.824-14.174-19.34-.284 6.704.149 9.19 2.157 15.476a97.756 97.756 0 0 1-3.048-3.027c-8.284-8.709-9.731-23.753-9.37-35.129-3.153 6.041-3.185 8.277-3.817 14.943-6.158-17.88-.781-33.454 16.869-41.468-7.781.94-9.068 1.163-15.766 4.959 4.059-6.188 8.45-11.294 16.012-13.647 3.143-.978 5.217-.651 8.243-2.351-3.459-1.601-6.977-.801-10.831-.415 9.118-4.661 12.712-5.641 22.77-3.419-1.789-1.2-7.017-4.321-7.645-5.945ZM437.408 455.625c6.14-.475 12.633 1.359 16.177 6.878 12.486 19.447-14.847 29.517-16.366 47.623-.443 5.275-.481 10.777 2.952 15.247 6.493 8.535 19.971 1.578 26.319 9.834 3.315 4.31 2.952 12.391-4.755 7.81-11.582-6.834-14.292 2.37-26.649-3.258-6.354-3.015-24.323-22.881-25.265-28.769-3.247-20.303 6.158-49.843 27.587-55.365Z"/><path fill="#2B2A2A" d="M438.336 461.115c12.867-.131 12.265 15.135 3.859 22.545l-.507-.106c.97-3.278 3.379-10.149 1.784-13.128-1.999-3.188-5.252-3.339-7.833-.949-6.707 6.215-11.549 16.899-12.303 25.938-.194 8.269 2.643 15.15 5.026 23.06-3.591-5.759-6.98-11.954-8.311-18.696-2.636-13.35 2.805-35.729 18.285-38.664Z"/><path fill="#FEFEFE" d="m198.362 353.833.744.792c-18.556 39.789-32.438 66.756-39.429 111.189-11.282 69.407.059 138.279 32.969 200.373 19.831 37.418 40.066 59.402 72.706 86.582a348.404 348.404 0 0 0 38.473 27.653c4.141 2.605 23.488 10.687 14.813 16.561-1.574.73-4.385-.257-5.638-1.034-29.363-18.2-60.659-42.255-83.937-67.686-30.548-33.374-52.369-76.079-65.664-119.002-21.059-67.992-13.931-143.942 12.256-209.507 5.486-13.678 15.522-32.572 22.707-45.921ZM400.189 456.193c3.395-.624 11.064-.308 14.752-.154-16.331 35.085-35.343 43.791-71.319 52.619-3.961.984-8.08 2.386-11.987 3.634 5.034-10.43 13.912-22.477 20.976-31.757 12.065-15.852 28.039-22.168 47.578-24.342Z"/><path fill="#FEFEFE" d="M449.082 429.899c20.217 4.565 34.467 36.544 25.012 54.873-2.324 4.505-13.772 14.363-18.405 15.78l-.937-.503c-3.728-9.028 18.529-23.022 1.833-46.962l-.41-.579c-10.519-11.313-25.632-8.94-36.08 1.089-9.711-6.129-27.043-2.163-37.823.066 1.62-4.131 6.236-13.383 10.395-14.572 4.34-1.241 15.023-.342 19.99-.559 14.828-.647 23.298-2.634 36.425-8.633ZM97.066 531.084l.768-1.737c4.961-4.42 23.261 4.829 28.258 8.202 14.276 9.639 21.219 23.989 24.261 40.533l.336 1.15-.844.453c-15.122-1.809-29.474-5.543-40.195-17.112-7.782-8.398-13.015-19.91-12.584-31.489Z"/><path fill="#2B2A2A" d="M107.204 542.15c1.464.54 6.851 6.595 8.139 8.171 9.722 11.897 22.738 18.006 34.374 27.251l.636.51c-14.565-1.484-38.788-22.153-43.149-35.932Z"/><path fill="#FEFEFE" d="M328.206 571.34c1.078 3.631 1.499 10.668 2.437 14.935 4.26 19.369 8.728 35.154 21.096 51.007-3.26 7.043-4.008 10.094-5.344 17.784-9.242-8.824-14.68-15.145-22.256-25.364-9.82-13.408-15.73-23.099-20.852-38.949 4.996-1.482 8.63-1.997 13.395-4.277 1.938 9.716 4.325 18.723 6.922 28.275-.201-9.208-2.047-21.578-2.625-31.42 3.522-4.746 4.816-6.592 7.227-11.991ZM192.318 731.704c12.946-1.254 30.571 3.088 41.364 10.475 2.883 1.974 7.332 6.775 9.928 9.382-6.299 4.45-12.245 6.355-19.691 7.783-20.626 2.264-39.114-3.28-52.672-19.607 6.351-6.059 12.837-7.177 21.071-8.033Z"/><path fill="#2B2A2A" d="M187.746 744.091c9.586 1.019 18.499 5.157 29.145 5.461 4.255.121 13.353-1.673 14.921-.968.231 1.273.302.649-.51 1.863-11.693 6.539-32.925-.072-43.556-6.356Z"/><path fill="#FEFEFE" d="M103.86 457.135a75.195 75.195 0 0 1 25.926 16.877c9.634 9.772 16.88 27.423 16.739 40.906l-.591.909.144.319-.272.469-.864-.257c-12.963-3.965-31-13.152-37.037-25.83-4.747-9.968-7.332-22.7-4.045-33.393Z"/><path fill="#2B2A2A" d="M113.913 474.34c10.116 17.08 17.095 27.607 32.612 40.578l-.591.909c-3.657-2.541-7.33-4.723-10.813-7.521a59.483 59.483 0 0 1-21.208-33.966Z"/><path fill="#FEFEFE" d="M127.528 377.687c.774.542 1.523 1.199 2.208 1.84 17.309 16.226 25.519 36.452 26.076 59.994.056 2.348.587 8.276-.922 9.913l-1.147-.467c-10.904-5.985-20.917-13.87-26.194-25.413-6.243-13.654-5.196-32.065-.021-45.867Z"/><path fill="#2B2A2A" d="m133.408 404.016 1.416-1.083c4.959 19.778 7.004 26.62 18.222 43.659-11.555-9.679-18.129-23.345-19.403-38.331a88.465 88.465 0 0 1-.235-4.245Z"/><path fill="#242323" d="M133.408 404.016c-.009-1.637.095-1.995.382-3.569l.526.202.508 2.284-1.416 1.083Z"/><path fill="#FEFEFE" d="m248.968 281.17.531.211c2.543 6.383-7.957 30.973-12.117 36.969-7.396 10.661-16.863 17.163-29.607 19.659 5.306-13.365 17.505-24.989 25.158-37.293l-.415-.53c-12.668 12.592-20.11 21.191-27.411 37.599-6.823-27.893 17.295-53.2 43.861-56.615ZM165.952 578.894c-4.725-26.764 13.705-47.692 37.413-57.288 1.734 14.63-.001 30.579-9.2 42.642-5.084 6.667-18.901 15.155-27.071 15.599l-.405-.373-.737-.58Z"/><path fill="#2B2A2A" d="M165.952 578.894c5.675-6.679 11.522-13.324 16.939-20.204 4.052-5.147 8.07-12.231 12.493-16.858-4.249 13.294-11.444 23.037-21.864 32.38-2.284 2.048-4.913 3.601-6.831 5.262l-.737-.58Z"/><path fill="#FEFEFE" d="M188.117 387.869c6.613-13.881 13.087-20.657 27.923-26.337 6.884-2.635 25.627-5.914 31.951-3.407 4.83 7.057-13.384 23.647-19.193 27.159-10.869 6.571-28.53 7.255-40.77 5.514-.314-.279-.854-.714-1.091-1.023l1.18-1.906Z"/><path fill="#2B2A2A" d="M188.117 387.869c3.029-.395 10.386-3.717 13.719-4.917 10.354-3.729 22.145-9.128 32.758-11.84l1.823-.469c-16.011 10.885-31.385 14.694-49.48 19.132l1.18-1.906Z"/><path fill="#FEFEFE" d="M208.947 580.432c7.879 18.815 3.172 45.431-11.852 59.397-1.332 1.238-4.339 4.358-5.194 5.669l.201.288-.524.958c-4.628 1.501-8.299-1.672-6.334-5.323-4.022-15.53-4.474-26.747 3.777-41.407 4.251-7.551 12.189-15.605 19.926-19.582Z"/><path fill="#2B2A2A" d="M187.781 647.838c2.757-13.968 6.095-33.548 15.417-44.724-3.728 13.649-9.121 28.072-13.074 42.393.941.474.423.315 1.777-.009l.201.288-.524.958c-4.628 1.501-8.299-1.672-6.334-5.323l2.537 6.417Z"/><path fill="#FEFEFE" d="M114.156 602.275c17.786-.951 40.086 10.751 50.027 25.589 1.524 2.274 3.754 8.693 5.107 11.487 1.428 1.682 2.962 4.75 1.188 6.618-1.438-.371-1.068-.137-2.252-.904-24.471-.107-52.534-16.248-54.07-42.79Z"/><path fill="#2B2A2A" d="M125.877 613.182c9.587 9.283 18.41 16.923 30.324 23.256 2.152 1.144 12.025 6.789 13.686 6.307l-.597-3.394c1.428 1.682 2.962 4.75 1.188 6.618-1.438-.371-1.068-.137-2.252-.904l-.45-.694c-18.999-5.765-31.959-13.24-41.899-31.189Z"/><path fill="#FEFEFE" d="M139.011 667.657a84.741 84.741 0 0 1 24.434 2.145c19.439 4.761 25.989 11.016 35.761 27.129-21.835-3.801-29.607-6.898-49.645-16.462 1.595 1.565 3.308 3.124 4.944 4.657 14.066 10.123 29.19 13.102 46.071 14.162-23.531 5.847-47.864 3.031-62.063-19.12-1.459-2.276-4.562-8.584-3.953-11.095 1.258-1.131 2.717-1.13 4.451-1.416ZM208.662 412.687c3.793-.376 14.269-.948 16.774 2.027.013 3.597-4.406 10.515-6.633 13.433-9.502 12.447-19.666 17.002-34.68 19.171-6.104.674-10.047.818-16.199.741 4.549-23.173 17.695-32.475 40.738-35.372Z"/><path fill="#2B2A2A" d="M209.329 428.17c-.084 1.828-9.117 6.677-10.82 7.559-8.746 4.527-18.278 8.969-28.149 10.12l-.102-.54c6.402-3.889 32.033-15.103 39.071-17.139Z"/><path fill="#FEFEFE" d="M164.188 319.011c2.383 2.932 4.859 6.742 6.564 10.09 11.333 22.248 10.62 38.161 3.636 61.02l.342.99c-.468.467-.902.953-1.42 1.346-.464-.193-.982-.379-1.347-.706-8.397-7.517-14.607-16.306-16.679-27.307-2.746-14.571.734-33.394 8.904-45.433Z"/><path fill="#2B2A2A" d="M167.177 348.885c.326 11.492 2.411 30.68 7.211 41.236l.342.99c-.468.467-.902.953-1.42 1.346-.533-2.548-2.615-7.941-3.514-10.665-3.715-11.247-5.568-21.306-2.619-32.907Z"/><path fill="#FEFEFE" d="M204.813 467.161c.764-.144 4.055-.294 5.017-.36a49.196 49.196 0 0 1-7.536 22.845c-10.279 16.415-25.935 21.368-43.812 25.48 4.52-4.345 11.163-8.712 16.307-12.537a146.184 146.184 0 0 0 16.784-14.536l5.742-6.644c-10.22 6.2-26.967 20.76-37.211 28.911 2.045-27.041 18.853-39.048 44.709-43.159ZM236.218 635.845l.916.404c3.187 4.429 5.383 15.158 5.783 20.801 1.415 19.96-8.113 30.155-20.299 44.263 1.279-4.496 11.2-36.397 10.256-39.009l-.71.853c-5.428 10.878-10.426 26.746-11.948 39.056-12.735-22.754-6.25-52.361 16.002-66.368ZM367.454 513.117c.699 1.233.514 1.207.386 2.926-.947 12.652 4.326 22.259 12.777 31.309 6.888 7.377 17.861 14.949 28.016 16.83 3.179.589 9.626.622 13.068.692 2.129 1.269 3.304 2.265 5.216 3.801-4.341 1.683-7.387 2.637-11.884 3.909-1.127.27-2.264.497-3.409.68-39.511 6.53-50.038-23.89-55.424-57l11.254-3.147ZM266.303 677.867c1.101 1.069 2.137 2.818 2.847 4.204 6.931 13.529 10.054 27.209 5.487 42.06-1.153 3.751-7.847 18.457-10.496 19.836-19.487-14.899-13.088-50.264 2.162-66.1Z"/><path fill="#2B2A2A" d="m268.753 711.389.473.739c.477 5.466-3.372 18.794-5.86 23.586-3.564-3.37 3.061-20.376 5.387-24.325Z"/><path fill="#FEFEFE" d="M358.071 540.342c1.206 2.746 2.273 7.283 3.303 10.22 9.672 27.575 24.914 35.312 52.898 30.873-1.92 3.1-3.591 5.388-5.779 8.321-.397.391-.799.777-1.205 1.159-11.487 10.848-27.645 7.903-37.416-3.325-10.647-12.237-12.857-31.727-11.801-47.248ZM246.784 316.367c.337 2.742.222 9.383.3 12.503.207 8.288.387 16.025 1.323 24.293a38.108 38.108 0 0 0-1.904-.277 65.725 65.725 0 0 0-49 14.222l-.744.647-.25-.495c2.337-6.738 7.028-16.337 10.065-23.017 19.327-1.42 31.306-10.615 40.21-27.876ZM372.573 445.511l.303.287c-.623 1.971-8.381 11.265-10.049 13.753-11.248 16.767-25.278 32.542-36.387 49.241l-3.747-3.069-4.259-2.584c11.51-15.61 21.131-36.706 33.449-52.453 9.181-.662 12.641-.968 20.69-5.175ZM530.353 380.079c-.077.631-2.399 5.875-2.856 6.939-3.544 8.246-5.691 13.691-6.431 22.793-1.272 15.649 4.592 30.285 14.296 42.359 3.276 4.077 6.895 7.08 10.142 10.876l.301.358a291.528 291.528 0 0 1-8.82-2.673c-15.081-5.369-26.551-23.196-26.745-38.977-.153-12.445 3.994-25.147 7.727-36.9 4.127-.986 8.534-3.036 12.386-4.775ZM381.612 506.934l.602.195c.385 1.316.376 5.689.675 7.737 1.253 8.576 4.593 16.582 9.381 23.778a49.581 49.581 0 0 0 9.863 11.073c1.939 1.593 10.98 7.742 11.275 9.191l-.875.557c-2.651.117-4.35-.553-6.903-1.267-17.663-7.397-39.616-25.34-32.989-47.01l8.971-4.254ZM492.967 397.108c1.078.864-.489 8.226-.616 10.565-1.104 20.367-.408 28.409 11.305 44.797-3.628-1.857-6.135-3.546-9.308-6.047-15.031-13.25-20.514-27.106-13.643-46.317 4.301-.906 8.014-1.847 12.262-2.998Z"/><path fill="#FEFEFE" d="m508.991 387.566 1.925.168c.389 1.379-3.183 13.615-3.663 15.904-3.248 15.477-4.366 31.297 5.683 44.59 2.39 3.162 6.867 6.28 8.729 9.287l-.461.393-2.613-.643c-24.738-11.028-23.968-42.48-18.34-64.776 3.415-3.407 3.858-4.073 8.74-4.923ZM341.362 458.539l.354.297c-.645 1.6-4.931 8.256-5.86 9.802-2.646 4.406-16.354 30.369-19.29 31.403l-1.927-2.585-3.262-3.069c4.557-10.759 9.007-22.473 13.435-33.395 6.623 1.433 10.769.624 16.55-2.453ZM543.878 370.979l.383.539c-7.719 17.672-15.934 30.078-15.237 50.959.072 2.166 1.404 17.494 1.326 17.812l-.64-.419c-6.686-16.912-4.756-35.742 2.208-52.249 2.945-6.982 5.338-12.529 11.96-16.642ZM313.099 456.156l5.491 3.233c-1.438 3.313-11.765 31.496-12.24 31.986-2.105-.564-4.314-1.077-6.437-1.604 2.875-8.947 9.538-24.267 13.186-33.615ZM459.358 411.028l.321.356c-8.577 10.308-25.652 15.709-38.473 17.416l-.228-.085.046-.502c2.181-1.594 9.529-7.203 11.564-7.661 11.274-2.535 16.472-3.631 26.77-9.524ZM472.754 410.392c.57 1.794-.322 6.243-.126 8.73.522 6.654 3.588 12.689 6.269 18.687-1.473-1.589-2.98-3.458-4.389-5.128-3.457-4.59-7.142-8.774-11.013-13.006l9.259-9.283Z"/><path fill="#A62F2C" d="M367.382 305.17c-.139 1.264-.277 2.414-.327 3.691 1.015.718 2.037 1.182 2.851 1.884a294.176 294.176 0 0 0-15.073 6.251 317.012 317.012 0 0 1 12.549-11.826Z"/><path fill="#FEFEFE" d="M597.994 346.673c.845 1.398-.408 11.692-.672 14.049l-.581-.381c-1.328-4.129-3.344-8.411-2.239-12.425 1.401-1.251 1.281-.874 3.492-1.243ZM377.007 447.909c1.21 5.212-1.423 7.956-5.981 9.577-.03-1.599 4.708-7.716 5.981-9.577ZM706.552 297.239c1.758.421 1.546.502 2.136 1.984-.305 2.269-.719 2.623-2.009 4.622-1.127-1.497-1.454-1.774-1.972-3.624.492-1.975.299-1.333 1.845-2.982ZM456.765 513.246c1.695 1.715 1.685 4.585 1.815 7.005l-.598.656c-1.355-1.594-2.139-2.288-2.893-4.196.179-2.148.117-1.472 1.676-3.465ZM447.162 504.846c.449 1.638-1.554 11.799-1.965 14.203-1.203-4.399-.082-10.197 1.965-14.203ZM555.926 363.23l.599.165.31.575c-1.171 2.104-3.703 4.593-5.401 6.436l-.188.158c1.561-3.81 1.859-4.281 4.68-7.334Z"/><path fill="#B4B4B9" d="M202.8 345.864c-1.255 3.642-1.966 5.315-3.694 8.761l-.744-.792c1.521-3.036 2.654-5.083 4.438-7.969Z"/></svg>