<svg xmlns="http://www.w3.org/2000/svg" width="1024" height="1024" viewBox="0 0 1024 1024"><path fill="#fefefe" d="M0 0h1024v1024H0z"/><path fill="#262223" d="M494.702 49.718q1.897-.097 3.798-.136c105.235-1.997 202.79 26.17 287.394 90.219 13.275 10.05 25.143 19.786 37.092 31.382 97.812 94.919 146.432 212.969 148.361 348.638a448.26 448.26 0 0 1-72.187 248.68c-16.612 25.391-37.655 49.889-58.483 71.877-67.818 71.591-162.77 115.991-259.884 129.388-16.375 2.258-35.963 4.593-52.398 4.77l-.467.022c-88.568 4.254-186.384-22.642-261.946-68.428a422.3 422.3 0 0 1-66.818-50.07c-22.809-20.724-42.892-45.583-60.799-70.424-54.646-75.157-81.05-162.2-86.277-254.412-7.155-126.213 43.287-244.733 126.191-338.207 78.857-88.91 198.701-137.64 316.423-143.299"/><path fill="#fefefe" d="M432.472 929.256c-52.346-9.515-94.385-21.257-140.761-49.399-45.501-27.611-74.681-57.466-108.715-97.154-60.624-70.695-93.766-157.27-96.877-250.353-4.172-94.675 21.164-178.79 69.985-259.698 57.893-95.943 149.514-153.873 257.143-179.684a428.25 428.25 0 0 1 323.31 50.874c79.591 48.81 137.114 124.259 171.936 210.125a463 463 0 0 1 21.474 65.542 449.6 449.6 0 0 1 13.142 97.153c1.264 69.556-18.651 151.464-54.808 211.217-6.379 10.542-15.24 22.688-22.668 32.675-8.642 11.62-19.206 25.919-28.756 36.696a402.85 402.85 0 0 1-163.24 111.719c-23.343 8.504-40.455 12.164-64.26 17.829l-.101-.885c-.814-7.466-4.837-15.237-7.657-22.477a138 138 0 0 1-5.863-18.569 91.6 91.6 0 0 1-2.493-25.209c.555-17.865 5.635-35.112 6.854-53.237 1.28-14.979-.955-29.319-.044-44.324 2.146-35.325 48.193-27.338 72.367-33.981 14.555-4 28.655-10.345 36.885-23.754a41.55 41.55 0 0 0-.811-44.439c-3.448-5.31-9.343-11.818-10.613-17.92-1.558-7.483 11.843-9.395 15.977-16.673 4.461-7.853 2.357-14.669.526-22.801 20.228-13.332 1.524-29.899 7.497-46.092 2.941-7.975 16.627-3.133 23.2-3.096 11.639.066 24.381-3.105 29.489-15.012 6.237-16.426-6.474-32.795-11.385-46.884-11.551-33.141-30.514-60.977-44.031-92.901-5.277-12.461.982-23.63-3.909-36.534-3.152-8.315-6.202-16.183-9.646-24.358a902 902 0 0 0-16.44-37.477c-3.652-7.888-8.332-17.434-11.429-25.416 11.766-20.409 17.982-48.831 6.843-70.349-12.612-24.363-42.218-30.03-66.321-35.627-8.713-2.024-19.705-6.453-28.5-9.239 4.971-1.512 29.259-11.684 26.2-17.514-6.329-4.366-30.99-5.039-39.233-3.965 7.336-8.259 32.551-44.228 3.383-35.477-18.824 5.648-37.94 9.19-53.689 21.973.334-4.456 1.494-10.763-.074-15.028-.504-1.369-1.422-2.727-2.846-3.243-2.251-.815-28.036 17.799-32.103 19.957l-.653.342c-9.648-.196-21.814.641-31.505 1.592-55.596 5.457-117.798 20.806-166.126 49.594-54.88 32.691-110.199 84.2-127.354 147.837-3.589 13.214-3.971 26.257-5.314 39.81-3.911 39.492-2.561 80.112 7.699 118.595 3.135 11.755 9.963 24.191 16.12 34.504-14.819 10.647-19.104 30.298-17.092 47.585.96 8.249 3.642 13.57 8.242 20.309-6.603 25.395-14.763 51.672-25.783 75.528-2.117 4.583-18.233 34.434-18.367 35.613-.14 1.23.113 2.536.911 3.513 1.97 2.412 6.761 1.831 9.598 2.469 11.948 2.684 14.474 15.228 20.471 24.076 2.057 3.036 5.107 6.961 8.957 7.574 1.654.263 3.168-.224 4.506-1.186 14.243-10.234 21.862-63.152 25.458-81.398.494-3.413.723-5.383 1.784-8.669-.011 3.078-.281 10.84-.919 13.634-1.104 15.293-11.472 101.743-6.895 108.651 1.477 2.231 4.724 3.684 7.307 3.907 6.679.574 13.523-4.365 19.52-6.752 9.364-3.728 20.275-6.371 27.986-13.227 5.035-4.476 6.535-8.634 6.874-15.203.597-11.555-.642-23.695-1.628-35.214-2.034-23.764-4.734-48.117-9.376-71.509-2.142-10.793-5.158-21.39-7.44-32.145 3.615 7.076 7.836 16.564 11.568 23.166 7.38 13.055 23.073 35.298 35.813 42.599-1.523 37.7-2.581 70.721-14.021 106.952-5.57 17.639-12.407 34.815-16.658 52.717-1.22 5.32-1.07 9.424 3.143 13.421 8.62 8.176 22.044 12.457 32.749 17.166a199 199 0 0 1 14.92 7.46c14.895 8.229 28.896 18.528 43.222 27.754a407.5 407.5 0 0 0 57.516 31.18c5.63 2.51 20.806 8.691 26.598 9.823z"/><path fill="#262223" d="M748.159 240.591c11.627-1.221 25.539 4.128 35.191 10.291 19.719 12.59 33.445 39.035 22.593 61.645 11.277 17.893 15.834 26.838 25.379 45.677-4.499-14.492-7.364-27.166-3.032-42.198 1.891-6.562 11.584-35.522 20.351-33.477 6.529 4.242 14.171 25.42 15.619 30.986 6.125 23.558.335 48.334-24.073 59.656 6.354 15.429 10.708 26.581 15.331 42.421.32-7.572.773-19.479 3.133-27.179 3.867-12.618 16.648-32.477 27.815-40.078 1.206-.821 4.076-1.232 5.256-.557 3.241 1.852 5.367 10.56 6.434 13.89 4.579 14.302 5.348 32.138-1.886 45.714-6.561 12.313-21.674 22.977-34.837 26.948 4.362 16.365 6.901 30.284 9.399 46.885a79.5 79.5 0 0 1 5.952-15.263c8.567-16.518 21.373-27.282 39.201-33.615 1.737-.617 3.115-.608 4.716.31 2.495 2.972 2.791 6.736 3.098 10.389 2.171 25.793-7.643 53.003-34.237 61.383-6.154 1.94-10.224 2.18-16.698 2.597.626 14.131 1.005 25.796-.299 39.857 9.619-21.43 22.848-30.493 45.341-37.182 14.063-4.183 15.235 1.875 13.385 15.199-4.201 30.241-29.83 55.071-61.73 49.14a295 295 0 0 1-8.259 36.582c9.875-12 34.895-25.264 51.907-20.992 6.83 3.608-.838 21.417-2.537 25.229-9.796 21.978-37.322 40.493-61.384 28.644-3.956 7.457-8.148 19.813-12.665 28.919 7.614-5.855 14.683-9.413 24.195-11.464 6.772-1.461 28.562-3.41 34.258.287.453.642.903 1.389.827 2.192-2.807 29.503-30.585 50.845-59.929 46.02-7.52-1.236-10.438-2.775-16.182-7.296-8.09 11.494-15.575 23.779-23.925 35.626 16.998-11.253 41.404-13.404 59.021-2.368 5.549 3.475 11.566 5.341 6.592 12.292-9.767 13.651-23.23 21.766-39.792 24.75-14.185 2.555-33.778-1.037-45.725-9.42-6.842 8.784-17.686 20.596-25.544 28.221 9.09-2.843 16.113-3.992 26.014-5.053 17.66-2.833 41.091 12.599 23.402 30.246-18.925 18.88-57.68 15.919-75.487-1.882a492 492 0 0 1-36.955 28.933c-8.071 5.547-35.754 24.564-43.818 24.724-2.376.047-5.032-1.683-6.567-3.386-1.983-2.2-2.817-5.163-2.521-8.087.299-2.958 1.777-6.297 4.014-8.298 5.334-4.772 16.167-10.205 22.701-14.231 13.929-8.581 28.058-17.912 40.576-28.454a61 61 0 0 1-4.174-4.451c-17.21-20.439-13.423-51.476 3.259-70.637 7.204-8.276 9.988-11.795 16.468.526 9.837 18.706 12.482 37.099 6.466 57.333 8.577-8.405 17.784-18.168 26.355-26.129-3.949-3.856-8.738-8.342-11.558-13.056-8.358-13.971-8.987-33.134-5.152-48.649 1.282-4.855 5.184-20.671 9.509-22.885 5.869-3.005 21.272 19.139 23.603 23.716 7.175 14.084 7.657 27.944 2.959 42.786 10.245-13.5 17.368-19.768 26.673-34.918-16.618-8.072-28.602-22.685-30.562-41.455-.921-11.59 1.503-27.156 7.543-37.129 3.724-6.149 15.193 3.442 18.195 6.237 13.979 13.011 20.151 26.44 20.794 45.492 5.411-9.873 11.513-23.356 16.545-33.714-30.429-13.603-38.156-47.694-27.834-77.227 2.084-5.963 10.888-.749 14.366 1.513 14.872 9.669 23.336 23.676 27.209 40.682 3.662-12.766 7.411-24.591 9.321-37.752-3.378-.203-6.622-.388-9.969-.846-30.967-4.244-40.898-35.201-37.04-62.622.417-2.96 1.207-6.282 3.517-8.367 3.741-.849 13.846 3.724 17.259 5.659 17.609 9.986 25.02 18.361 30.75 37.167.671-14.498 1.259-27.477 1.281-42.014q-2.617.098-5.235.033c-33.328-1.012-54.481-21.96-56.063-55.551-.311-6.609 8.849-5.16 13.218-4.548 19.723 2.767 32.783 9.164 44.827 24.942a320 320 0 0 0-6.608-38.15c-15.366 3.972-34.931 3.988-50.208-5.27-8.646-5.239-25.61-25.797-21.156-38.279 1.037-2.906 14.198-3.643 18.068-3.741 17-.434 31.391 4.219 43.742 16.259-3.813-10.821-8.256-21.036-12.44-31.68q-.603.205-1.206.403c-35.797 11.776-67.568-1.123-78.951-37.16-2.217-7.018 3.394-8.312 8.812-8.885 22.361-2.364 40.612 2.275 58.236 16.219-2.729-6.477-9.413-20.238-12.997-26.181a48.2 48.2 0 0 1-20.112-5.009c-13.74-6.899-24.844-20.971-29.372-35.509-2.562-8.229-5.977-24.363-1.957-32.326"/><path fill="#fefefe" d="M807.915 320.763c8.504 14.854 23.152 41.4 29.789 56.779 29.419 68.767 40.013 148.663 20.58 221.441-23.01 86.174-75.794 160.481-144.806 216.092-9.428 7.598-57.464 45.668-66.273 44.648-4.787-2.427-3.263-7.151.936-9.803 16.902-10.672 34.673-21.103 50.601-33.186a493 493 0 0 0 46.821-40.63c37.468-36.258 59.003-64.823 82.289-112.178 37.07-75.386 44.151-157.072 23.702-238.386-8.439-33.693-27.793-72.165-44.124-103.436zM922.273 513.167c1.73-.171 2.809-.308 4.389.483 1.14 1.164 1.617 2.091 1.893 3.713 1.447 8.502-4.308 20.759-9.119 27.538-10.122 14.263-25.304 21.331-42.12 24.196a232 232 0 0 0-7.178 1.108c2.026-11.926 5.096-23.584 12.481-33.387a60.04 60.04 0 0 1 39.654-23.651"/><path fill="#262223" d="m916.921 528.393.257.259c.155 1.371-.592 2.403-1.262 3.587-7.203 12.724-28.438 32.038-42.784 35.717l-.494-.659c1.694-2.751 5.436-4.786 8.074-6.576 15.359-10.428 24.131-18.057 36.209-32.328"/><path fill="#fefefe" d="M780.288 757.85c8.425-12.641 21.215-19.896 35.996-22.373 14.721-2.467 31.701-4.136 43.491 6.619-16.894 16.47-29.651 23.129-53.763 23.005-4.613-.023-24.553-1.924-27.339-4.395.793-.81.321-.548 1.409-.8z"/><path fill="#262223" d="M780.288 757.85c17.941-1.517 34.978-2.995 52.081-8.867 2.52-.865 6.521-1.53 9.174-2.014-16.717 7.043-43.082 17.358-61.461 12.937z"/><path fill="#fefefe" d="M916.59 436.934c.262.02.53.001.786.061 1.091.256 1.627 1.017 1.967 2.025 2.989 8.834.053 23.211-3.644 31.489-7.925 17.745-22.946 24.018-40.036 30.498-.954.48-1.583.709-2.652.78-1.893-4.293 2.589-21.436 4.297-26.16 6.77-18.72 21.678-30.615 39.282-38.693"/><path fill="#262223" d="M907.287 457.364c.424 1.639-.432 3.593-.989 5.149-5.336 14.918-18.433 30.956-32.927 37.718-.268-1.935 4.983-5.342 6.543-6.776 11.377-10.456 19.322-23.1 27.373-36.091"/><path fill="#fefefe" d="M751.042 245.459c26.704 1.36 52.375 23.561 52.532 51.003.022 3.82-.574 5.969-1.78 9.44-7.419-16.464-16.656-26.962-29.724-39.063l-1.194-1.011-.48.26c2.167 3.682 7.762 9.601 10.612 13.326 6.333 8.279 13.358 17.916 18.33 26.999-10.961-1.93-17.985-5.304-26.48-12.722-11.755-10.264-21.118-32.925-21.816-48.232M750.042 329.008c19.217-2.881 46.054.544 60.466 15.226 3.837 3.909 9.939 12.506 11.603 17.568l.034.545c1.052.802.772.276 1.057 1.481-1.935 1.22-7.694.909-10.164 1.139-32.579 3.02-46.762-7.794-62.996-35.959"/><path fill="#262223" d="M767.516 342.704a2770 2770 0 0 1 31.671 10.676c7.201 2.455 16.136 5.262 22.924 8.422l.034.545c-11.785.96-44.975-12.544-54.629-19.643"/><path fill="#fefefe" d="M889.217 351.343c.7.272 1.229.662 1.516 1.41 4.769 12.447 5.968 30.276 2.052 42.808-4.439 14.209-16.015 25.453-28.585 32.073l-4.341 1.884c-.41-9.301.932-24.451 2.629-33.522 3.096-16.555 14.131-33.577 26.729-44.653"/><path fill="#262223" d="m883.226 375.883.435.447c.651 2.705.228 7.234-.163 10.027-1.866 13.356-7.654 30.111-18.955 38.439l-.334-.265c.666-2.256 3.212-5.158 4.523-7.261 7.821-12.546 11.283-27.12 14.494-41.387"/><path fill="#fefefe" d="M809.671 508.961c1.263.063 2.032.387 3.243.757 20.998 6.424 47.925 36.222 40.056 59.739l-.047.473c-.716.553-.534.622-1.738.426-10.687-1.746-24.72-8.345-31.252-17.149-9.084-12.244-11.935-29.586-10.262-44.246"/><path fill="#262223" d="M819.384 530.958c4.981 5.59 10.395 13.069 15.456 19.085 4.435 5.273 15.648 15.181 18.13 19.414-12.651-5.051-30.343-25.413-33.586-38.499"/><path fill="#fefefe" d="M786.732 389.61c28.109-2.027 53.859 7.113 59.622 37.378-1.06.636-2.261.38-3.729.394-27.132.702-47.541-5.798-60.788-31.568-.742-1.444-.832-3.158-.225-4.638 1.525-1.109 3.247-1.226 5.12-1.566"/><path fill="#262223" d="M797.837 406.438c5.497.227 42.869 15.219 46.825 18.933-15.957-1.944-33.405-10.384-46.825-18.933"/><path fill="#fefefe" d="M847.236 286.997c7.755 8.065 12.845 29.604 12.368 41.018-.659 15.733-4.663 25.622-16.255 36.728-1.228 1.176-2.63 2.654-4.298 2.676-.451-1.359-.299-.676.239-2.423l-1.506-.601c-1.868-3.026-2.262-6.644-3.291-9.988-7.462-24.258-1.734-46.685 12.743-67.41"/><path fill="#262223" d="M845.678 320.637c2.294 18.427.824 27.778-6.388 44.359l-1.506-.601c2.663-8.564 4.684-14.545 5.963-23.5.962-6.741 1.023-13.753 1.931-20.258"/><path fill="#fefefe" d="M774.621 790.195c2.6-.377 5.5-.298 8.121-.175 5.206.244 11.949 1.082 15.526 5.273a9 9 0 0 1 2.093 6.636c-.305 3.627-2.632 6.563-5.328 8.829-9.851 8.28-25.006 11.342-37.541 10.406-10.145-1.468-18.836-5.229-26.805-11.687 4.369-3.792 8.682-7.566 12.747-11.689 10.631-1.685 20.369-6.52 31.187-7.593"/><path fill="#262223" d="M781.001 810.225q-1.895.386-3.78.81c-9.282 2.011-22.621 3.75-31.484-1.652-1.04-.634-1.79-1.676-1.953-2.928 2.829-1.09 12.462 2.084 16.075 2.62 7.133 1.06 14.071.273 21.142-.617z"/><path fill="#262223" d="m781.001 808.458 9.381-1.478c-3.276 1.234-6.03 2.239-9.381 3.245z"/><path fill="#fefefe" d="M851.738 639.156c2.194-26.228 33.379-44.202 57.332-45.774.59-.039 1.366.333 1.872.616 1.08 2.131.289 7.084-.626 9.296-9.28 22.415-26.458 33.687-49.455 36.903-1.929.212-8.247 1.272-9.46.647l.79-.801z"/><path fill="#262223" d="M851.738 639.156a155.5 155.5 0 0 0 47.475-33.574c-9.6 17.884-23.433 26.649-42.122 33.72 1.821.778 1.878.711 3.77.895-1.929.212-8.247 1.272-9.46.647l.79-.801z"/><path fill="#ceced1" d="M852.191 640.043c1.449-.006 3.417-.458 4.9-.741 1.821.778 1.878.711 3.77.895-1.929.212-8.247 1.272-9.46.647z"/><path fill="#fefefe" d="M829.676 642.77c-2.12-1.042-5.738-4.75-7.698-6.385-18.41-15.364-23.853-40.923-17.012-63.617 16.949 7.068 31.997 27.441 31.808 46.233-.061 6.056-.6 18.483-4.962 23.153l-.634.022-.397-2.225c-.322.914-.637 2.002-1.105 2.819"/><path fill="#262223" d="M813.068 597.255c9.163 11.607 14.762 28.358 17.713 42.696-.322.914-.637 2.002-1.105 2.819a944 944 0 0 0-9.581-26.377c-2.324-6.074-5.221-12.976-7.027-19.138"/><path fill="#fefefe" d="M877.868 664.207c3.938-.67 10.275-.895 14.033.557.596 1.094.493 1.205.22 2.373-2.509 10.747-10.47 20.781-19.707 26.572-15.075 9.452-35.22 10.185-52.119 6.222 15.182-1.281 29.127-4.438 42.541-11.909 4.864-2.866 9.247-5.829 13.391-9.683-6.31 2.596-12.273 6.055-18.597 8.673-11.209 4.639-23.183 7.698-34.945 10.567 2.409-4.862 5.275-10.288 8.733-14.472 10.92-13.215 30.281-17.363 46.45-18.9M800.542 448.454c14.001.558 29.839 5.292 41.035 13.92 11.124 8.572 14.429 19.6 16.248 32.927-6.012-4.988-12.677-9.261-18.972-13.892-7.727-5.684-15.507-12.757-24.145-16.897l3.74 4.297c6.468 6.371 14.046 12.623 21.56 17.711 6.498 4.4 13.626 8.39 19.463 13.656-14.06-2.745-30.661-6.972-41.488-16.828-9.138-8.318-16.895-22.403-17.441-34.894M745.155 682.714c9.199 6.17 18.858 23.617 20.995 34.544 2.6 13.3-1.028 26.013-8.432 37.105l-2.883 3.556a67 67 0 0 1-12.291-19.863c-7.113-17.919-4.971-37.919 2.611-55.342"/><path fill="#262223" d="M749.621 718.377c3.121 4.098 7.1 26.301 6.955 31.865-.232-.178-.498-.32-.696-.534-3.814-4.123-6.599-25.155-6.259-31.331"/><path fill="#fefefe" d="M777.853 632.745c.509.215.995.474 1.479.741 11.174 6.166 20.262 19.373 23.821 31.427 3.923 13.286 2.857 26.546-3.829 38.711-4.09-14.033-8.454-28.641-15.67-41.414l-.786-1.02-.431.186c.337 3.32 1.605 6.63 2.581 9.812 3.392 11.06 7.935 21.685 11.341 32.7-10.11-12.085-21.077-20.714-24.182-37.089-2.026-10.685-.516-24.909 5.676-34.054M709.116 728.397c2.352 2.746 4.195 5.942 5.714 9.211 6.905 14.867 9.4 34.02 3.641 49.669-2.35 6.386-5.741 11.371-12.043 14.34-1.136-4.034-3.449-7.509-5.527-11.1-4.314-7.458-7.032-15.856-7.23-24.524-.311-13.565 6.144-27.906 15.445-37.596"/><path fill="#262223" d="M702.352 765.789c.56.355.652.368 1.159.948 3.924 4.489 6.687 20.684 5.605 26.468-.434-.525-.378-.426-.789-1.093-2.089-3.388-6.767-22.634-5.975-26.323"/><path fill="#ceced1" d="M807.43 322.104c-1.092-1.849-4.303-6.902-4.492-8.741 2.51 3.035 3.104 3.932 4.977 7.4z"/><path fill="#fefefe" d="M646.749 247.057c4.266 6.018 8.733 12.059 12.3 18.511 18.446 33.372 34.308 68.483 47.093 104.4 1.345 3.78.52 9.652.401 13.669-.249 8.461 2.484 16.334 5.696 24.044 6.403 15.979 16.085 30.313 23.746 45.454 6.966 14.586 12.69 29.777 18.774 44.752 3.552 8.742 8.135 17.893 9.622 27.201 2.313 14.469-17.197 17.949-27.767 17.734-8.047-.164-17.335-3.68-23.108 4.449-4.383 6.517-4.359 18.298-2.582 25.813 1.175 4.534 3.668 8.76 4.563 13.496-2.936 1.668-10.777-1.878-13.793-1.961-7.35-.203-18.737 5.653-24.968 8.914l1.026 1.614c6.053-1.661 13.628-2.991 19.806-4.159 6.823 2.721 9.744 4.29 17.137 4.673-2.167 1.382-3.158 1.978-5.015 3.721-1.13-.492-4.028-1.742-5.09-2.022-13.661-3.596-39.304 2.211-51.066 8.563 1.04-2.678 4.338-12.163 2.839-14.361l-1.209-.152c-5.12 2.786-10.295 26.106-8.928 32.123l.587.304c2.03-2.283 4.254-9.041 5.389-12.061 20.781-4.579 26.494-15.191 51.454-8.298 2.588 2.604 5.054 7.16 4.463 10.915-1.179 7.482-9.464 8.865-14.729 12.839-7.045 4.74-10.696 14.495-5.846 22.115 7.501 11.784 18.335 21.828 16.125 37.285-1.129 7.891-5.567 15.795-12.572 20.359-16.626 10.832-37.561 11.674-56.597 14.874-24.578 4.095-44.687 7.394-69.647 6.653-16.241-.482-24.753-2.611-40.258-4.972 24.44 11.728 43.897 13.213 69.996 14.446-9.231 9.667-6.115 29.267-5.457 41.76.534 8.591.483 17.208-.154 25.792-1.687 22.525-8.858 40.686-6.825 62.206.495 8.451 3.243 17.051 5.341 24.959 1.244 4.687 12.889 32.45 7.281 34.946-18.537 8.249-49.387 5.532-69.097 4.233-52.429-3.458-104.151-16.426-149.379-43.641-27.957-16.693-54.602-35.564-83.351-50.821-5.709-3.029-12.409-5.242-18.113-8.273a11.6 11.6 0 0 1-3.617-2.975c-5.637-7.082 2.578-27.327 5.608-34.587 13.544-32.45 18.409-65.265 19.889-100.25.83-19.604 1.203-35.564 4.067-55.298a40 40 0 0 0 3.535 2.06c9.052 4.588 21.378 3.336 30.583-.011 20.323-7.39 31.935-19.448 41.056-38.418a185 185 0 0 1-6.087 6.489c-11.851 11.901-35.143 23.968-52.04 23.811-31.711-.295-45.105-55.583-44.944-79.766a496 496 0 0 1 9.833-12.189c-4.193 18.46-.752 37.915 6.367 55.403 9.832 24.154 33.543 32.171 56.938 21.298 15.896-7.388 24.264-19.125 30.159-35.691-6.756 8.454-9.203 15.066-19.206 22.658-8.959 6.799-23.544 12.438-34.758 11.003 7.983-2.327 12.893-3.058 20.526-7.537 13.554-7.952 21.978-21.81 26.095-36.602 4.249-1.575 9.538-4.169 13.741-6.088 5.802 6.106 11.663 14.718 18.939 18.785 6.572 3.672 15.84 5.891 23.257 3.773 7.083-1.81 11.809-7.535 15.127-13.706 1.115-2.073 4.922-9.864 1.722-11.127-9.459 5.774-9.907 14.659-25.863 11.608a27.5 27.5 0 0 1-10.036-4.111c-5.071-3.432-12.746-12.048-18.032-16.416-12.097-9.996-29.04-18.885-37.715-31.88-11.424-17.905-11.672-44.437-7.754-64.289 5.295-26.832 21.573-54.408 52.803-46.741 11.821 2.902 21.096 9.194 27.509 19.825 5.697 9.445 9.782 22.935 7.446 33.982-2.742 11.62-13.734 17.972-23.316 23.722-.378-2.498-.879-4.963-1.358-7.443 8.725-11.981 12.571-19.369 7.511-34.571-2.121-6.372-6.211-12.493-12.713-15.132-18.087-7.34-33.139 2.867-39.895 19.758-6.238 15.303-9.293 34.429-4.196 50.429 1.053 3.304 5.956 7.267 7.338 10.65 6.603 13.776 14.691 22.408 31.029 21.889 4.349-.138 11.036-1.58 15.324-.681 2.17.455 7.572 3.199 10.263 4.282a75 75 0 0 0 3.131-.942c18.803-6.212.422-21.979-2.937-31.456-5.195-14.661 10.766-20.196 15.638-31.496 5.542-12.854 1.174-28.378-3.491-40.929 17.479 15.186 40.264 19.889 63.018 21.419 3.226.217 15.103.342 17.408-1.853-.815-1.298-4.698-3.55-6.311-4.795-4.199-3.242-12.277-11.821-14.355-16.456 2.05-3.458 1.72-3.931 1.48-7.851-1.53-24.908 7.873-46.987 24.272-65.413 7.73-8.264 15.733-16.277 23.551-24.471 3.676-3.852 6.099-8.597 9.468-12.256l.604-.645c-.676 16.689 2.179 28.148 18.603 35.929-7.582-21.83 2.327-41.588 17.412-57.366 11.739 4.098 28.469-2.628 38.176-9.487 14.265-10.081 18.49-23.389 21.11-39.944"/><path fill="#302c2d" d="M668.541 597.069c2.583-.951 5.619-2.394 8.185-3.536l1.026 1.614c-3.054.752-6.124 1.32-9.211 1.922"/><path fill="#262223" d="M662.51 362.201c11.714-.956 27.853.404 34.603 11.804 2.613 4.413-1.499 11.395-5.624 13.226-2.551 1.131-6.631-1.339-8.968-2.306-4.565-2.261-9.812-.825-14.682-.454-39.202 4.82-59.802 44.617-93.867 57.813 8.362-6.519 16.495-11.906 24.57-19.098 25.79-22.97 38.037-42.295 74.342-47.652 6.077-.466 11.574-.047 17.648.301-27.896-15.816-69.228 7.146-89.146 27.491-15.267 15.595-25.776 27.341-44.257 39.442l29.781-31.953c22.833-24.979 39.784-45.064 75.6-48.614"/><path fill="#262223" d="M669.978 401.205c1.461-.124 2.615-.249 4.042.221l.492 1.004c-.21 6.344-6.751 10.824-7.312 15.401-2.604 21.237 2.628 43.302-27.913 31.317-2.938-1.153-14.626-6.562-12.817-10.795 1.418.37 4.733 3.769 6.784 5.139a30.6 30.6 0 0 0 8.481 3.865c7.628 2.132 15.213 1.647 17.07-7.091.847-3.983 1.936-25.369-4.552-23.963-14.332 3.107-24.896 18.39-35.56 27.659 7.673 4.682 13.877 9.123 22.164 12.914 7.835 3.094 13.191 3.895 20.921-.39 1.827-3.856 4.36-13.295 5.158-14.411 1.118 1.618.852 8.073.686 10.187-.956 12.13-4.032 22.32-13.313 30.516 2.415-6.733 3.857-11.682 5.631-18.531-19.625 2.987-28.062-5.486-42.985-16.26-2.548-1.84-4.502-2.485-7.501-3.148 14.168-15.899 38.202-41.895 60.524-43.634M410.68 622.818c6.291 3.96 14.334 13.444 20.547 18.692 26.412 22.312 57.185 41.28 91.942 46.291l.393.742c-18.243 4.737-48.932-6.669-65.453-14.997-21.198-10.686-39.832-27.722-47.429-50.728"/><path fill="#262223" d="M671.136 386.198c6.888-.423 10.541 3.97 7.126 9.925-3.129 2.371-21.603.435-30.194 5.7-26.99 16.539-38.82 40.22-71.689 48.021-4.043.684-5.605.708-9.74.702 10.701-4.565 16.826-5.929 27.119-13.109a207 207 0 0 0 22.074-18.08c18.329-17.002 28.818-30.548 55.304-33.159M690.556 507.615l7.517-.487c-3.015 1.599-6.135 3.092-8.799 5.252-4.59 3.72-7.474 8.415-7.966 14.364-.41 4.955.393 11.359 3.956 15.151 1.221 1.3 2.715 1.837 4.491 1.552 1.907-.305 4.42-1.992 6.049-2.992 8.995-5.527 17.953-12.993 29.14-12.229 6.919.472 18.593 3.594 23.3 8.822-.39.594-.788 1.167-1.294 1.671-4.312 4.301-21.781-.254-27.822-.237l-.873.007c-5.474 3.108-10.618 6.785-16.34 9.454-5.19 2.42-10.647 3.58-16.168 1.415-4.153-1.628-7.185-5.041-8.879-9.112-2.566-6.167-1.87-13.362.611-19.44 2.615-6.406 6.768-10.555 13.077-13.191M420.637 797.263c2.904 1.747 5.696 3.939 8.574 5.781 20.317 13.008 29.642 21.144 44.459 40.212-.947-.348-1.788-.761-2.602-1.361-5.123-3.774-9.829-8.121-14.99-11.874-8.282-6.022-17.724-11.57-25.134-18.646-4.189-3.999-7.636-8.998-10.307-14.112M433.215 821.389c2.549 1.584 4.974 3.646 7.457 5.369 14.71 10.203 26.991 19.175 39.185 32.559 2.865 3.145 6.058 6.382 7.857 10.279-5.542-3.497-10.487-8.858-15.764-12.86-13.295-10.084-32.503-18.69-38.735-35.347M387.302 722.796c3.498 2.219 6.793 5.508 10.045 8.116 13.987 11.216 29.814 23.226 38.518 39.275-4.078-2.587-7.908-6.11-11.784-9.04-14.649-11.074-28.596-21.332-36.779-38.351M378.227 696.319c3.471 2.068 6.902 6.687 9.872 9.554 13.922 13.435 27.823 25.504 38.041 42.245-.277-.131-.567-.238-.833-.391-3.488-2.016-7.945-6.753-11.105-9.455-14.754-12.615-29.221-23.181-35.975-41.953M397.951 748.207c3.168 1.338 6.705 4.962 9.513 7.113 14.996 11.486 29.561 22.071 39.258 38.789-3.566-2.416-6.777-5.844-10.302-8.456-15.745-11.664-29.072-19.21-38.469-37.446M410.226 774.342c4.716 3.752 10.108 6.697 15.09 10.093 13.421 9.148 26.188 20.471 35.048 34.219-4.844-2.484-9.878-7.504-14.286-10.834-12.624-9.537-29.264-18.267-35.852-33.478M447.407 847.204c7.607 2.654 31.704 21.981 38.062 28.086a139.4 139.4 0 0 1 14.09 15.896c-5.546-2.357-36.783-26.442-41.552-31.02-4.139-3.972-7.457-8.173-10.6-12.962M373.102 676.727c4.408 2.323 29.221 28.786 33.622 34.174 3.279 4.014 6.022 8.461 8.819 12.816-8.393-5.008-29.925-26.013-35.532-33.762-3.042-4.202-5.035-8.399-6.909-13.228M370.209 655.712c.17.097.349.181.511.292 2.552 1.747 5.044 5.408 7.109 7.768 7.857 8.98 24.477 26.873 27.353 37.841-3.139-2.265-6.321-6.46-9.068-9.27-11.2-11.461-21.771-20.555-25.905-36.631M569.394 696.201c1.374-.189 2.397-.274 3.788-.07l.306.592c-.36.54-.39.642-.949 1.141-9.802 8.762-37.878 9.51-50.298 8.588q-4.095-.826-8.18-1.707c9.974-.123 20.311-1.219 30.056-3.358 8.292-1.821 16.807-4.511 25.277-5.186M599.346 699.546l1.683-.084.117.537q-.38.421-.779.826c-9.723 9.779-36.413 11.974-49.992 12.146-.843-.032-1.104-.01-1.851-.453 3.987-1.849 9.522-2.304 13.848-3.392a3208 3208 0 0 0 36.974-9.58M462.996 871.43c9.294 4.798 40.962 28.666 44.627 37.166-14.163-9.275-27.895-18.625-39.697-30.896-1.638-1.703-4.369-3.995-4.93-6.27M669.842 527.441c.554.65.424 1.424.331 2.244-1.659 14.545-23.13 34.275-34.194 42.546l-.127-.067c.191-1.648 5.865-6.894 7.265-8.502 5.173-5.944 10.358-12.081 14.804-18.593 3.927-5.752 7.414-12.351 11.921-17.628M626.15 701.691l1.172-.111.034.457c-13.373 8.997-30.267 12.175-46.088 11.868-.9-.215-1.22-.23-1.907-.886 3.373-1.499 8.043-1.283 11.716-2.208 11.744-2.96 22.963-7.7 35.073-9.12M599.884 715.719c17.525-3.001 31.259-9.405 47.95-12.134-1.353.951-3.494 2.167-4.137 3.567l1.935 1.106c-14.512 2.563-30.256 8.794-45.748 7.461M537.236 692.18c1.31-.175 2.308-.165 3.602-.005l-.055.919c-.45.668-.854 1.278-1.526 1.745-7.142 4.966-27.638 2.922-35.785 1.274-2.709-.598-5.366-1.395-8.03-2.163 14.909.579 26.908.365 41.794-1.77M371.391 639.828c5.242 3.652 21.843 30.47 23.714 37.235-2.902-2.902-5.458-6.545-7.985-9.791-6.913-8.882-12.594-16.498-15.729-27.444"/><path fill="#262223" d="M643.697 707.152c7.763-1.017 15.367-2.698 23.101-3.912-6.837 2.628-13.978 3.733-21.166 5.018z"/><path fill="#fefefe" d="M136.839 264.178c21.441-35.491 55.517-74.873 87.276-101.424 53.046-43.522 116.333-73.928 182.906-90.312 112.874-27.778 233.709-10.15 333.939 49.343C849.384 186.1 922.6 296.979 952.743 418.097c7.028 28.241 12.497 62.411 13.267 91.434 2.155 81.242-19.96 163.915-60.63 234.148-9.296 16.054-19.906 31.113-30.701 46.131-3.008-5.916-5.266-11.571-8.88-17.083 7.299-9.354 15.051-18.999 21.982-28.584 1.22 2.735 3.952 9.796 6.915 10.65 2.385-2.85-3.031-10.641-4.899-13.202 7.952-12.918 15.437-25.979 21.988-39.675 1.515-3.168 7.991-19.737 9.791-20.77.027-.016.063-.012.095-.017.455-1.709.961-2.919 1.615-4.568-.098-1.675 4.286-13.91 5.047-16.21a583 583 0 0 0 6.527-20.818c.967-3.388 3.006-11.74 4.275-14.613l.535-1.41c-.094-.902 7.189-43.242 7.627-44.184l.556-.592c-.225-.441-.674-1.331-.575-1.725 1.701-6.762 2.627-34.899 3.946-39.462l.966-.787-.999-1.263c-.398-33.164-2.742-65.681-9.073-98.322a491.6 491.6 0 0 0-45.768-129.119c-43.239-82.914-103.744-146.207-187.23-188.636a413.2 413.2 0 0 0-143.014-43.105A454.5 454.5 0 0 0 232.58 172.09c-30.812 24.444-54.168 52.392-76.893 84.436-8.049 2.503-11.851 5.147-18.848 7.652"/><path fill="#262223" d="M947.853 578.734c4.559 2.093 9.45 8.084 8.318 13.272l-.698.41c-3.391-1.429-6.488-9.696-8.176-13.09zM951.224 537.547l.966-.787c5.628 4.645 7.736 7.516 10.354 14.406-1.994-1.075-4.199-2.203-6.132-3.349-1.43-3.041-3.424-7.603-5.188-10.27M939.67 623.51c4.352 1.446 7.838 11.877 8.482 16.191-3.202-4.009-8.085-9.731-9.017-14.781zM923.286 676.561c2.394 3.453 4.559 7.929 4.269 12.215l-.585 1.027c-2.762-.354-4.561-6.163-5.299-8.674.455-1.709.961-2.919 1.615-4.568"/><path fill="#fefefe" d="M579.849 143.197c7.706-1.36 20.073 1.45 28.455 1.978-7.492 3.725-16.68 8.548-24.598 10.89-4.828 1.414-11.293 1.295-15.928 3.194-58.492 23.971-108.1 68.124-145.531 118.482-5.004 6.733-10.335 13.331-15.441 19.754-24.09 30.3-46.51 61.789-69.126 93.178-10.172 14.165-17.319 30.986-27.682 45.159-22.899 32.462-48.45 62.754-72.583 94.189-1.643-2.532-3.583-4.932-5.432-7.327 16.876-19.356 23.755-29.987 36.45-52.453 3.875-6.522 6.53-11.662 8.745-18.95-15.581 26.046-29.953 45.219-48.941 68.418-4.009-2.25-6.114-3.284-10.365-4.996a1749 1749 0 0 0 70.813-96.798l33.703-51.096c7.828-12.089 15.652-24.876 23.967-36.573 12.487-16.913 26.446-32.419 38.385-49.783 12.539-18.236 28.339-33.572 44.277-48.756 6.751-6.433 12.946-15.054 19.73-21.152 18.242-16.396 38.171-31.547 59.361-43.916 19.397-10.674 50.01-20.84 71.741-23.442M249.185 223.237c1.867-2.03 4-4.045 5.975-5.987 9.58 24.035 2.198 60.438 4.902 86.775 2.729 26.582 13.409 47.164 17.291 73.129 1.416 9.466 3.83 26.882 2.152 36.369-.477 2.697-4.623 8.169-6.443 10.687 1.638-28.261-9.402-48.79-18.054-74.426-3.148-9.327-4.72-17.129-6.213-26.767-1.108 1.43-.869 3.302-.9 5.193.545 19.247 12.325 45.994 15.892 65.264 5.199 28.089 5.389 33.941-9.336 56.427 4.162-29.617-9.126-56.03-20.736-81.988 1.742 8.751 6.16 21.377 8.906 30.284 5.354 17.373 10.748 48.282 1.851 64.661.135-23.399-8.216-55.058-23.839-72.897 12.965 26.674 17.422 47.341 19.001 76.821-2.407-6.712-3.898-14.288-6.696-20.911-7.277-17.224-18.605-30.959-29.598-45.746-4.608-6.198-10.461-16.139-13.458-23.132-2.693-6.282-3.526-13.558-3.971-20.339-1.301-19.856 4.267-31.904 12.642-49.228l12.251-25.321c4.563-9.564 10.166-21.908 11.794-32.361 2.856-2.697 5.463-5.803 8.055-8.77-1.571 49.938-36.323 68.985-9.946 124.39-2.798-14.418-5.27-28.909-3.172-43.601 4.046-28.331 23.723-53.621 16.404-83.605 3.412-3.867 8.372-8.374 12.172-12.017 8.226 24.151 5.594 37.644-.677 61.846-1.22 4.707-3.1 14.307-2.898 18.862 9.046-28.912 20.244-54.433 6.649-83.612"/><path fill="#302c2d" d="M247.895 328.21a44.8 44.8 0 0 1-.043-11.81c.718 1.854.778 4.563.943 6.617-1.108 1.43-.869 3.302-.9 5.193"/><path fill="#fefefe" d="M299.673 194.683c5.898-.594 21.537 5.176 26.324 9.608 4.93 4.565 7.94 8.029 11.453 13.667 14.141 22.696 1.448 44.076-3.376 66.992-1.898 9.014-1.696 19.418-.933 28.7-9.274-27.328-9.024-39.712-7.549-67.755l-.137.49c-4.799 17.539-7.079 40.948-.367 58.225 2.431 6.259 5.286 11.091 8.596 16.892q-.132 8.377-.161 16.756c-2.297 3.942-4.259 6.987-6.84 10.753.95-16.306-5.035-33.47-12.691-47.628-1.498-2.77-3.317-6.294-6.886-4.951-5.368 5.45-19.91 36.11-22.413 44.588-1.608 5.447-2.419 20.089-2.772 26.518-6.398-24.023-19.215-47.04-20.086-70.837-.518-14.165 2.413-31.845 3.131-46.689.155-13.331-1.836-22.663-7.131-34.73 1.463-1.432 3.058-2.612 4.669-3.876 8.467 16.986 12.439 32.151 11.111 51.206-.84 12.066-4.498 26.993-.458 38.278-.021-12.261 2.614-24.629 4.371-36.736 2.333-16.084-1.516-41.97-11.881-54.944l5.622-4.134c14.497 24.41 14.271 39.874 11.231 67.906-.732 6.752-2.18 13.81-2.681 20.587 11.149-31.938 16.92-61.625-5.306-90.137 3.327-3.096 6.385-5.275 10.145-7.787 29.475 6.715 42.688 20.348 45.252 50.667 1.214-8.665 1.991-15.258-1.065-23.777-3.44-9.589-10.305-18.448-19.224-23.543-2.931-1.674-6.752-2.783-9.948-4.309"/><path fill="#262223" d="M309.119 213.768c1.66.973 5.027 5.984 6.002 7.826 7.256 13.637.738 29.064.403 43.448-.109 4.662.077 8.993.159 13.601.075 4.252.743 10.241-.438 14.21l-1.505.181c-1.059-1.341-1.303-5.553-1.5-7.505-1.003-9.955-1.411-20.742-.496-30.684.811-8.816 3.316-18.154 2.412-27.051-.464-4.565-3.138-9.753-5.037-14.026"/><path fill="#fefefe" d="M579.172 203.185c23.735 12.448 39.156 42.185 20.957 65.555-2.331 2.994-13.226 16.711-15.886 17.71l-.251-.45-.527-.346c-1.784 4.512-6.497 10.008-9.361 14.131-9.203 13.247-13.758 26.026-11.977 42.211-3.527-7.901-4.423-12.722-4.459-21.439-.043-10.203 3.961-17.571 6.176-27.078 4.424-18.987 9.96-36.819-5.5-51.835 8.267 14.576 6.633 20.202 3.163 36.09-7.224 33.072-28.455 48.902-50.697 71.734l-.384-.096c2.641-4.287 6.779-9.437 9.769-13.727 12.973-18.608 23.363-36.8 17.823-60.288-2.713-11.5-10.585-22.648-20.509-29.008 17.191-4.198 30.025-8.327 43.718-20.349 3.372-2.96 7.262-6.266 9.765-10.036-8.57-5.742-20.88-9.739-30.793-12.993 12.954.36 26.111 1.853 38.973.214"/><path fill="#262223" d="M572.119 213.916c28.937 16.997 29.514 46.177 11.873 72.084l-.527-.346c7.266-13.533 11.346-28.064 6.904-43.328-3.677-12.633-11.298-18.612-18.25-28.41"/><path fill="#fefefe" d="M231.398 594.926c1.267 10.135 3.597 20.115 5.234 30.195a1479 1479 0 0 1 8.715 63.937c.99 9.331 1.914 18.758 2.03 28.148.085 6.928-.939 14.543.112 21.352-9.529 5.016-20.126 8.009-29.452 13.219-5.289 2.955-9.28 8.685-14.535 11.071-1.445.657-1.937.436-3.348-.169l-.304-.954a18 18 0 0 0 2.558-1.485l7.195-116.86c1.683-13.368 2.476-27.167 2.057-40.635 1.931-.393 3.894-.62 5.846-.882a781 781 0 0 1-2.95 50.353c-1.377 14.925-3.362 29.948-2.979 44.958 4.14-22.869 7.552-46.34 9.429-69.512.29-3.577.841-26.267 1.275-27.152 1.078 1.081 4.935 36.649 7.103 42.652.055.154.116.305.174.458-.14-10.821-1.768-34.553-4.345-44.774 2.147-1.163 4.153-2.569 6.185-3.92"/><path fill="#262223" d="M223.172 646.378c.069.059.149.108.209.177 3.734 4.322 9.358 73.42 9.996 84.114l-.571-.482c-2.264-7.383-2.538-16.556-3.517-24.252-2.484-19.527-5.853-39.877-6.117-59.557"/><path fill="#fefefe" d="m362.877 400.752.439.436c-12.029 13.495-21.676 23.462-27.176 41.134-3.064 9.842-2.857 16.606-8.682 24.989-17.759 25.562-39.308 48.29-59.858 71.586-6.55 7.424-14.427 15.347-20.5 22.924-.408-4.888-.658-8.307-1.677-13.142 14.077-10.521 32.92-37.872 43.668-52.656 2.405-3.426 3.97-6.176 5.864-9.871-14.828 14.292-27.273 31.316-40.576 46.989-3.085 3.634-6.252 7.745-9.833 10.879-1.025-2.842-2.149-5.335-3.373-8.092 10.052-16.234 24.994-31.74 36.208-47.003 19.246-26.195 37.518-52.591 55.318-79.758 11.774-4.807 17.66-7.224 30.178-8.415M203.075 522.618c7.049-.293 13.571 1.291 19.437 5.325 7.602 5.228 12.227 14.309 13.781 23.23 1.912 10.98-.131 23.88-6.667 33.085-4.74 6.676-11.011 10.119-19.033 11.508-5.798.594-11.883-1.373-16.71-4.542-8.02-5.264-14.408-14.101-16.352-23.533-2.158-10.473-.55-23.768 5.455-32.791 4.772-7.17 11.879-10.681 20.089-12.282"/><path fill="#262223" d="M201.757 529.595c5.146-.543 9.554.767 13.732 3.877 6.408 4.768 9.919 11.982 11.1 19.735 1.363 8.944.533 19.952-5.194 27.342-3.61 4.659-8.03 6.685-13.736 7.355-2.371-.135-4.729-.466-6.956-1.32-6.923-2.653-12.027-8.178-15.065-14.826-3.525-7.712-4.214-16.506-1.129-24.484 3.194-8.259 9.173-14.193 17.248-17.679"/><path fill="#fefefe" d="M203.073 535.478c1.899-.156 3.384-.126 5.188.6 4.732 1.902 7.945 5.794 9.891 10.417 3.012 7.156 2.311 16.09-.799 23.13-2.108 4.772-4.888 7.838-9.782 9.65-1.319.031-2.602.003-3.9-.262-3.898-.799-7.289-3.457-9.436-6.75-3.853-5.908-4.51-14.049-2.811-20.763 1.731-6.845 5.606-12.403 11.649-16.022M140.92 693.739c10.674-13.483 18.719-38.209 25.123-54.248 3.664-9.177 5.58-20.901 9.415-30.18 1.924-4.654 3.081-12.822 5.052-16.693l.961-.132.728.915c1.934 12.09-9.017 51.166-12.971 64.178 6.218-9.646 10.583-26.226 13.362-37.587l1.07-.323c-.998 11.918-4.315 24.825-4.813 36.446 6.323-18.901 9.249-37.485 11.256-57.193 3.594 1.708 6.427 2.835 10.16 4.246-1.046 24.936-12.874 109.342-28.553 127.653-2.855-4.541-4.255-10.833-6.619-15.742-5.748-11.931-10.373-19.34-24.171-21.34M387.65 437.582c2.676-.247 5.75-.166 8.317.644 4.729 1.492 8.455 4.736 10.667 9.17 9.217 18.472-13.742 27.368-18.435 42.86-1.793 5.919-1.579 14.068 1.599 19.539 5.455 9.389 14.577 4.692 22.832 7.337 2.984.956 5.716 2.616 7.164 5.484 1.131 2.242 1.627 4.976.903 7.398-.877.948-1.267 1.433-2.653 1.577-1.607.167-2.84-.828-4.053-1.709-8.803-6.942-13.692-.21-22.723-1.768-9.432-1.627-16.69-9.337-21.972-16.755-4.24-5.957-10.017-8.061-11.776-15.814-3.106-13.689 2.325-30.933 9.704-42.438 5.08-7.92 11.046-13.468 20.426-15.525"/><path fill="#262223" d="M387.107 443.096c1.601-.052 3.239-.142 4.805.255 3.804.962 5.655 3.581 7.545 6.776.12 1.855.212 3.834.078 5.693-.414 5.743-3.946 8.682-8.033 12.164 2.06-4.182 4.292-10.012 2.761-14.671-.384-1.166-1.13-2.213-2.321-2.655-1.799-.667-3.685-.043-5.225.934-7.581 4.81-13.027 18.24-14.725 26.731-.431 8.753 3.338 16.333 5.198 24.684-2.572-3.794-4.703-7.455-6.364-11.753-4.271-11.057-3.748-22.202 1.188-33.005 3.141-6.873 7.875-12.457 15.093-15.153"/><path fill="#fefefe" d="M511.401 247.594c5.787 1.18 15.961 17.091 18.261 22.778 16.913 41.83-28.117 70.94-38.821 107.848-5.297 18.262-4.526 28.122-1.707 46.645a39 39 0 0 1-.493-.951c-7.522-15.021-6.447-34.483-1.321-50.038 2.104-5.634 5.843-12.139 8.879-17.377 12.304-21.225 19.741-53.47 3.029-74.479 3.072-5.342 8.95-10.722-.141-14.311-17.15-6.772-43.25-7.076-60.434-.604 3.68-6.052 6.241-5.507 11.834-8.569 14.519-7.95 25.686-8.679 41.743-8.615 7.038.029 12.26-.219 19.171-2.327"/><path fill="#262223" d="M493.111 251.41c1.254.234 2.479.601 3.656 1.094 9.318 3.947 17.165 13.248 20.984 22.441 6.175 14.863 5.408 28.53-.614 43.204-.502 1.051-.649 1.202-1.364 2.138.115.378 2.55-17.179 2.649-19.547a64 64 0 0 0-1.944-18.547c-3.608-14.053-10.988-23.512-23.367-30.783"/><path fill="#fefefe" d="M424.146 339.207c6.173-.237 12.277.135 18.437.466-18.489 28.388-27.913 38.424-63.33 46.876-8.266 1.973-17.386 3.025-25.671 5.24-6.244 1.997-7.586 2.731-13.003 6.528 4.24-8.449 20.036-29.166 25.87-36.796 11.616-15.19 39.14-21.052 57.697-22.314M613.171 187.746c12.915 9.374 24.719 20.77 26.932 37.039 3.38 24.836-3.866 51.67-28.118 62.825-1.658.763-4.01 2.488-5.89 2.404l-1.486-.747c-4.985 3.171-7.882 5.604-13.854 4.923l-.199-.43c2.835-3.678 7.746-8.504 11.062-12.089 11.097-11.999 16.135-25.192 14.217-41.528-1.685-14.349-9.695-29.896-21.214-38.894a32 32 0 0 0-5.055-3.171c9.088-2.583 15.173-6.084 23.605-10.332"/><path fill="#262223" d="M605.661 203.28c12.808 7.913 22.706 15.664 26.534 31.172 4.659 18.873-6.568 36.537-19.418 49.382-1.79 1.79-5.186 4.415-6.682 6.18l-1.486-.747c11.307-9.583 23.646-26.962 25.014-42.299 1.692-18.975-11.066-31.65-23.962-43.688"/><path fill="#fefefe" d="m374.586 223.318.604.236c.257.728.593 1.791.649 2.556 1.151 15.622 5.085 38.316 1.507 53.164-2.372 9.844-17.858 25.3-24.546 33.088a196 196 0 0 0-11.624 14.916l-1.61 2.214-.478-.123c1.112-11.448-.903-20.858-.226-32.381a109.07 109.07 0 0 1 35.724-73.67M459.354 269.199c8.879-1.661 29.884 1.043 38.576 3.786-14.091 18.995-39.178 30.748-61.818 35.574-11.714 2.17-23.118 3.094-34.979 4.045 8.885-11.72 17.984-21.876 26.979-34.189 13.244-5.207 15.787-7.476 31.242-9.216M453.46 316.562l.581.273c1.435 2.239 1.465 5.845 1.668 8.456 2.858 36.687-24.427 78.286 4.497 110.494a44 44 0 0 1-5.641-3.068c-10.686-6.747-23.175-22.335-22.843-35.545.235-9.343 2.596-16.646.458-26.06l-.137-.793c4.896-6.53 16.518-24.397 16.131-32.298-2-4.792-12.498-4.397-16.974-4.557-19.764-.706-35.255 3.534-53.22 11.181 4.885-7.391 10.794-15.299 15.986-22.561 25.15-.774 33.257 2.474 59.494-5.522M498.411 283.467c2.388 3.459 3.811 10.6 4.727 14.607 9.446 41.328-27.807 63.945-24.993 101.341 1.383 18.379 13.336 36.087 27.309 47.693a234 234 0 0 1-8.793-2.323c-10.545-3.214-16.769-10.309-22.637-19.214-19.688-29.879 6.596-61.809 10.169-92.287 1.397-11.922-.805-19.632-3.994-30.858 7.601-6.645 12.043-11.066 18.212-18.959M441.801 155.829c6.43 6.347 2.677 50.279-2.925 57.784-9.689 12.981-26.428 25.809-38.011 37.827l-2.054 2.344-.332-.484c1.665-9.674-.381-19.297 1.182-29.125 3.197-20.103 14.208-32.416 26.185-47.609a1423 1423 0 0 0 15.955-20.737"/><path fill="#fefefe" d="M346.709 168.203c5.223-.268 10.375-.12 15.521.99 14.945 3.222 32.192 15.959 40.398 28.676-7.905 18.88-9.254 28.989-10.44 49.266-.356 6.096-1.561 11.4-.583 17.606l-3.633 6.487c2.62-22.473-1.396-35.932-10.436-56.203-4.879 3.375-8.376 6.074-12.587 10.218-3.082-24.569-13.609-44.424-38.695-51.112 6.578-.077 17.949 1.463 23.941 3.898 15.93 6.475 20.098 16.742 26.502 31.129-4.15-26.275-14.968-38.385-42.633-37.719 5.192-2.248 7.029-2.822 12.645-3.236M503.594 203.936c24.573-.651 36.002 2.68 58.65 11.444-16.182 11.293-38.788 20.721-58.62 22.1-23.036 1.503-28.488-2.631-50.274 10.78 13.505-15.654 32.703-33.233 50.244-44.324M215.895 258.103c-.24 3.25-17.858 37.396-20.843 43.772-13.975 29.839-17.414 59.74-.217 89.315 7.176 12.341 15.688 24.085 22.746 36.512 8.23 14.49 11.62 30.235 17.406 45.493l-3.134 4.252-2.264-5.261c-5.726-12.523-10.394-22.031-17.825-33.619-14.955-23.324-35.143-43.986-38.101-72.739-3.278-31.855 11.182-61.351 28.009-87.322 4.433-6.842 8.986-14.118 14.223-20.403M520.325 112.424l.452.502c.41 12.725-9.233 36.98-15.882 48.133-20.078 12.771-38.845 25.813-54.66 43.666l1.225-6.612c.228-2.853 1.066-6.734 2.075-9.412l-.133 2.518c-.122 2.075-.657 3.741 1.339 4.874l1.274-.381c3.765-3.485 3.462-14.837 4.747-20.466 6.821-29.884 21.517-35.472 45.169-50.793 3.423-2.218 10.639-8.876 14.394-12.029"/><path fill="#fefefe" d="M394.377 151.583c9.641-1.636 19.917-4.431 29.667-6.341a366 366 0 0 1 48.643-6.224c-2.716 3.371-5.498 6.953-8.42 10.124l-.633 1.178c-.149 1.661-2.708 6.977-3.444 8.958-2.058 5.541-4.613 12.157-5.337 18.061l-.38-.03c-.246-.717-1.184-5.564-1.479-6.718-2.249-8.806-4.157-15.42-9.808-22.563-5.453 3.213-28.089 30.156-32.515 36.208-5.172-8.58-16.396-18.642-26.165-21.897-.951-.317-2.894-.707-3.867-.14 13.461 6.365 19.051 12.185 28.604 23.773l-4.87 8.351c-10.183-15.726-29.564-33.327-49.596-31.918q.69-.254 1.387-.491c26.197-8.991 43.271-8.272 68.788 4.069-10.583-10.063-16.212-11.925-30.575-14.4"/><path fill="#262223" d="M463.634 150.32c-4.339-1.829-12.596-4.655-16.207-6.707l.541-.293c6.409.729 10.843 2.65 16.299 5.822z"/><path fill="#fefefe" d="M308.09 304.841c5.617 6.954 9.251 17.779 11.019 26.412 5.763 28.125-7.925 43.643-22.635 65.647-1.277 1.99-2.848 4.119-4.222 6.071-6.833-43.9-6.799-59.467 15.838-98.13M268.319 554.933c1.527 2.683.764 9.444 1.199 12.766.753 5.749 2.389 11.604 3.83 17.218 4.426 17.258 9.253 30.362 20.716 44.187-3.908 5.761-5.833 12.509-6.903 19.323-9.892-8.252-18.054-19.249-25.505-29.686-7.845-11.759-15.94-22.592-19.608-36.484 3.246-5.554 8.993-9.607 13.508-14.138.574 12.182 3.953 25.053 7.466 36.708-.141-5.149-1.025-10.443-1.506-15.585a511 511 0 0 1-1.652-25.315c2.69-3.154 5.491-6.097 8.455-8.994M477.277 304.448c13.507 47.519-46.445 100.343 4.543 138.131-3.905-1.074-5.742-1.618-9.411-3.246-35.6-23.417-12.47-67.166-11.952-100.089.123-7.868-2.207-16.038-5.335-23.226 8.423-3.774 14.231-6.841 22.155-11.57M618.62 181.489c15.899 5.133 34.316 6.299 46.969 18.535 13.89 13.431 13.898 36.573 8.758 53.869-.774 2.603-2.133 7.998-3.98 9.913-.821-.481-1.808-2.989-2.338-4.072 7.241-23.366 4.613-42.51-12.789-60.202-4.773-4.273-8.792-6.775-14.584-9.33 24.263 19.367 27.987 35.15 24.13 64.781-5.511-8.843-8.646-11.773-16.215-18.662a64.4 64.4 0 0 0-.957-10.512c-2.529-14.01-10.327-25.595-21.698-34.049-2.896-2.154-5.589-3.305-8.527-5.353 1.005-2.143 1.31-2.573 1.231-4.918M568.909 167.211c17.048-.584 28.208 6.645 43.575 13.798-16.36 11.264-28.411 11.025-46.994 11.585-15.301.232-27.755-2.32-43.675-2.309 10.814-9.213 32.748-22.199 47.094-23.074M587.669 106.659l.076.689c-9.222 17.901-10.148 29.47-32.446 34.851-11.614 2.803-26.451 8.868-37.465 13.473-.142-1.896 3.296-7.87 4.105-10.436.889-2.816 1.57-9.109 2.975-11.102 11.062-15.685 45.212-22.851 62.755-27.475M317.116 179.551c30.597-1.449 40.464 26.457 42.674 51.878-2.395 4.043-7.798 11.024-10.74 15.024-.019-7.919-.139-11.031-1.869-18.665a60.2 60.2 0 0 0-13.755-22.408c-9.417-9.59-20.577-13.828-34.259-13.754-3.588.019-4.205 2.096-10.161 1.952l-.791-.026c8.842-5.876 18.574-11.289 28.901-14.001M310.815 502.39c1.412 16.429 7.942 24.936 20.014 35.747 11.527 10.323 23.427 14.72 38.797 13.841 2.289 1.276 4.496 2.685 6.718 4.074-3.168 1.405-6.572 2.436-9.845 3.586l-.745.192c-12.869 3.259-28.17 4.012-39.937-3.157-14.259-8.687-19.953-26.875-23.609-42.117 2.751-4.131 5.715-8.132 8.607-12.166M439.245 935.982c7.471.632 47.758 5.34 52.815 7.829 6.592 3.244 11.671 13.071 14.015 19.685-18.024.348-36.436-1.425-54.345-3.258-1.926-9.974-4.525-17.538-12.485-24.256M633.3 929.078h.824c-.143 2.129-2.945 5.21-3.992 7.187-2.396 4.523-4.28 9.089-5.609 14.031-16.327 4.744-33.495 7.065-50.305 9.388-1.989-2.691-4.128-5.149-6.394-7.611-3.063-3.132-6.511-5.559-10.18-7.926 12.357-1.389 37.4-1.61 47.557-6.677 1.543-.771 2.61-1.893 3.731-3.175a544 544 0 0 0 24.368-5.217"/><path fill="#fefefe" d="M297.367 519.394c.554 4.667-1.645 11.321-2.225 16.137-1.911 15.879 2.484 36.655 12.473 49.404 4.912 6.269 11.679 10.003 19.573 10.922 10.037 1.17 18.126-2.494 25.851-8.556-3.097 3.968-6.251 7.061-10.299 10.053-6.143 4.216-12.888 7.148-20.386 7.702-6.176.457-12.825-.086-17.65-4.386-12.798-11.405-17.583-34.033-18.361-50.328-.751-15.715.482-19.258 11.024-30.948"/><path fill="#fefefe" d="M300.661 525.391c1.445 1.778 2.199 6.117 2.904 8.36 3.522 11.207 9.266 23.585 19.18 30.524 11.564 8.094 26.054 7.738 39.36 5.43-1.909 3.482-4.05 6.524-6.724 9.458-5.374 4.955-11.562 8.227-19.082 7.96a31.28 31.28 0 0 1-21.769-9.964c-12.462-13.479-14.525-34.32-13.869-51.768M503.854 943.487c14.939.37 29.768.896 44.725.947 3.473 3.467 15.511 11.606 16.4 15.803l-1.402.508c-15.967 1.325-32.011 2.574-48.04 2.783-3.12-7.428-6.697-13.7-11.683-20.041M392.218 928.76c9.639 2.294 30.722 4.627 37.907 8.56 8.651 4.737 11.117 12.678 13.814 21.389-6.657-.461-13.515-2.204-20.03-3.572-8.612-1.808-17.285-3.525-25.724-6.042-1.352-7.059-3.506-13.607-5.967-20.335M169.14 412.875c2.289 1.959 6.737 13.794 10.136 17.738 9.207 10.685 20.984 18.187 30.509 28.454 5.457 5.882 14.941 19.336 14.612 27.686-.066.009-.132.025-.2.026-2.873.016-6.406-5.659-8.271-7.734-9.945-11.064-21.356-14.813-31.588-23.608-12.645-10.87-14-26.976-15.198-42.562M215.918 832.701c7.084 3.918 16.335 14.211 22.733 19.959 3.467 3.114 7.239 5.751 11.086 8.363.657 7.439 1.474 15.093.895 22.555-12.344-8.503-24.624-17.423-35.683-27.549 1.109-7.798.885-15.484.969-23.328M255.049 864.71c6.527 2.547 16.223 10.434 22.478 14.617 5.641 3.771 11.496 7.184 17.348 10.614-1.269 6.449 2.48 14.163 2.764 20.881-13.32-5.283-26.228-13.533-38.076-21.534-.595-8.232-2.245-16.666-4.514-24.578M169.641 370.384c.835 1.755 2.02 6.798 2.545 8.825 5.102 19.708 19.101 33.726 30.69 49.716 5.729 7.905 10.888 18.292 15.449 27.218-3.187-2.485-6.03-5.627-8.97-7.9-8.349-6.455-15.816-12.369-23.238-19.941-14.541-14.836-17.156-37.889-16.476-57.918M326.873 481.416c1.16 1.583.421 10.522.488 13.094.183 7.023 2.857 15.16 5.813 21.504 4.073 8.742 10.923 17.382 18.907 22.86 2.656 1.822 7.429 4.087 9.246 6.617l-.313.903c-2.799.968-6.159-.367-8.895-1.166-3.931-1.581-7.669-3.739-11.17-6.11-10.575-7.16-23.367-18.743-25.705-31.999-1.795-10.174 6.097-18.052 11.629-25.703M861.281 777.885c3.508 4.268 5.621 11.903 7.898 17.112-4.187 4.293-8.037 9.055-12.032 13.538a1711 1711 0 0 1-18.713 20.405l-.383.309c-2.527-2.718-5.368-11.174-6.761-14.781 11.19-11.224 20.875-23.665 29.991-36.583M123.939 714.781c2.058 1.277 19.901 32.924 21.757 36.986-1.152 6.359-1.796 15.51-4.045 21.228l-.617-.24c-7.838-12.106-16.222-23.778-23.43-36.297 1.168-7.368 3.77-14.696 6.335-21.677M181.11 795.327c4.456 3.456 8.579 9.32 12.422 13.561 4.252 4.693 9.196 9.219 12.985 14.282 3.258 4.353 1.973 19.599 1.312 25.027l-.646.166a346 346 0 0 1-28.427-28.902c1.601-8.21 3.168-15.726 2.354-24.134M671.948 918.089l.388.441c.351 5.459.926 12.387 4.038 16.982a413 413 0 0 1-41.532 12.863c-1.056.229-1.893.332-2.973.265-.419-1.732.575-3.648 1.306-5.223 1.895-4.079 3.761-8.582 6.585-12.122 6.497-8.143 22.56-9.729 32.188-13.206M76.838 521.939c.444 2.695 1.702 39.53 1.453 41.422-.55 4.178-9.087 15.225-12.165 17.627l-.47-1.025c-2.891-13.964-4.276-34.687-4.775-49.002 7.149-.621 11.306-3.867 15.957-9.022M151.549 757.905c2.899 2.861 5.201 7.192 7.828 10.466 5.463 6.807 11.576 13.099 16.798 20.095-1.301 7.955-2.52 15.935-4.205 23.82-8.795-10.322-17.258-20.722-25.098-31.795 3.9-7.428 4.668-14.293 4.677-22.586M346.089 915.066c12.593 3.253 25.003 8.189 37.496 11.956 2.765 6.341 4.327 13.118 6.064 19.791a935 935 0 0 1-38.987-12.278c-.982-6.655-2.679-13.03-4.573-19.469M85.294 425.972l.286.294c.29 2.72-5.03 31.919-5.834 36.872-5.694 5.365-11.968 9.968-17.894 15.057-1.354-6.529 4.503-37.972 6.04-46.872l.644.122c7.233 1.323 11.054-1.535 16.758-5.473M77.963 475.541l.32.32c.674 4.571-.404 10.013-.668 14.646q-.496 10.34-.822 20.686c-3.936 5.082-10.312 11.467-16.075 14.238l-.517-.55c-.147-8.252-.703-36.999 1.436-43.415.335-1.006.328-1.191 1.313-1.661l1.046 1.975.919.253c4.813-1.746 8.796-3.616 13.048-6.492M712.504 901.99c1.005.956 4.04 12.453 4.999 14.95-11.082 6.256-22.957 11.558-34.856 16.044l-1.232-.213c-2.147-4.597-2.738-11.644-3.817-16.756 11.664-4.543 23.528-8.807 34.906-14.025M790.919 851.019c1.653 1.683 4.096 13.27 5.174 16.242-10.423 8.693-21.569 16.207-32.785 23.816-2.42-3.726-3.132-10.256-5.643-14.824 11.502-8.03 22.394-16.364 33.254-25.234M827.29 818.367c1.049.98 4.486 13.611 5.354 15.838-9.745 9.895-20.123 19.33-30.653 28.382-1.896-5.175-3.744-10.302-6.184-15.254 4.797-4.557 10.082-8.694 15.022-13.109 5.678-5.075 11.053-10.497 16.461-15.857M302.898 894.726c11.656 6.424 23.928 11.552 35.891 17.35 1.1 6.235 2.251 12.501 2.985 18.79-11.798-4.356-23.026-10.018-34.499-15.136-.537-7.239-2.205-14.099-4.377-21.004M96.417 381.006c.022 1.485-7.856 30.601-8.723 34.418-5.725 3.055-15.691 11.136-19.04 12.749l-.007-1.299c1.55-8.165 7.226-37.346 11.997-42.732.249 1.037.188.757.742 1.712 2.988.724 12.1-3.371 15.03-4.848M80.73 573.867c1.15 12.878 4.031 25.183 6.426 37.847q-.089.299-.182.598c-1.222 3.848-7.155 15.702-10.504 17.417l-.645-.848c-3.861-13.01-6.57-27.084-8.914-40.457 5.795-4.385 9.933-8.375 13.819-14.557M103.155 668.363c1.901 2.348 13.553 31.896 15.814 37.156-1.142 3.114-5.252 16.231-7.546 17.688-6.14-12.062-12.04-24.279-16.927-36.91 3.983-5.51 6.334-11.612 8.659-17.934M753.412 878.907c.98 1.284 2.729 12.459 4.007 15.769-5.951 3.766-25.272 16.798-31.155 17.366l-.886-1.229c-2.131-3.974-4.971-7.471-6.919-11.564a516 516 0 0 0 34.953-20.342M111.566 340.121c.049 1.985-10.469 27.254-12.002 30.733-7.09 4.19-10.986 6.306-18.79 9.368 3.176-11.849 9.457-28.135 14.576-39.207 7.112 1.429 9.245 1.517 16.216-.894M89.6 623.301c2.556 4.161 7.993 27.829 9.784 33.979-1.748 6.648-4.396 14.052-8.126 19.888l-.612-.308c-4.287-12.373-8.428-25.019-11.828-37.662 4.49-4.878 8.054-9.84 10.781-15.897M114.513 300.778c6.728 1.613 9.308 2.115 15.827-.107-4.372 8.815-7.877 21.07-14.395 28.34-.844.94-4.155 2.757-5.404 3.456-5.006 2.558-7.783 3.292-13.283 4.452 4.747-11.658 11.423-25.037 17.255-36.141"/><path fill="#fefefe" d="M170.489 438.558c7.554 19.354 21.067 23.043 34.82 37.625 5.765 6.113 8.984 11.39 13.31 18.446l-3.16 2.877c-3.82-3.656-10.009-9.651-14.01-12.82-15.177-12.023-20.836-17.181-27.388-35.56l-.675-.442-.758 1.285-.673-.448c-.026-3.075-.94-7.785-1.466-10.963M174.983 460.519c4.078 10.566 14.177 18.315 22.121 26.309a308 308 0 0 1 14.266 15.568c-1.725 1.723-3.741 3.617-5.266 5.485-5.107-5.764-14.959-11.78-21.677-15.982-2.444-5.82-4.682-11.037-6.619-17.064-1.323-4.117-2.325-9.732-3.655-13.517zM149.364 266.038l.596.5c-5.037 8.165-9.685 16.465-14.842 24.576-5.853 1.982-11.372 4.236-17.421 5.327l-.468-.709a1856 1856 0 0 1 16.78-27.113c7.102-.066 8.779-.101 15.355-2.581M428.916 373.942c.426 1.721-.363 5.929-.755 7.677-3.962 17.646-3.348 22.838 4.888 38.229-2.285-2.362-4.999-5.823-7.153-8.422-4.659-6.008-9.194-9.477-13.316-16.18.939-3.276 2.066-6.7 2.442-10.069 4.565-3.439 9.495-7.575 13.894-11.235M411.89 387.008l.461.538c-2.689 8.846-6.046 3.288-2.726 13.993-5.546-2.582-7.424-2.812-13.594-3.523-2.364-.303-5.211-.413-7.626-.57 9.029-3.983 14.052-5.415 23.485-10.438M188.311 499.823c4.481 2.81 8.032 7.61 12.013 11.158l-6.777.203c-1.452-3.875-3.499-7.596-5.236-11.361M408.664 498.3c.175.169.388.305.525.506 1.124 1.653 1.659 5.907 1.615 7.89l-.671-.039c-1.523-1.615-3.077-3.16-3.455-5.408.428-1.619.802-1.832 1.986-2.949"/><path fill="#ceced1" d="M398.953 487.785c1.157 2.844-1.863 6.909-2.19 9.899-.254 2.334.921 5.237.134 7.396-2.261-6.407-.522-11.381 2.056-17.295"/><path fill="#746f73" d="M184.147 611.015c.423-3.652 1.075-10.106 2.178-13.503-.291 4.001-.513 8.392-1.106 12.326zM171.955 449.521l.673.448c.648 3.472 1.285 7.202 2.355 10.55l-.83.799c-1.174-4.292-1.688-7.419-2.198-11.797"/><path fill="#ceced1" d="M185.219 609.838c-.229 1.545-1.201 8.815-1.559 9.831l-1.07.323c.317-2.589 1.093-6.318 1.557-8.977z"/><path fill="#302c2d" d="m454.473 177.309.38.03c1.056 1.524 1.755 5.165.368 6.709-1.359-1.451-.85-4.804-.748-6.739"/><path fill="#746f73" d="M433.241 928.315c2.951.939 6.533 1.941 9.23 3.301-3.087-.643-7.099-1.358-9.999-2.36z"/></svg>